<svg width="640" height="640" viewBox="0 0 640 640" fill="none" xmlns="http://www.w3.org/2000/svg">
<rect x="194" y="130" width="60" height="60" rx="16" fill="#00C300"/>
<path d="M229.068 161.476L218.518 145.778H209.777V175.111H218.931V159.413L229.482 175.111H238.222V145.778H229.068V161.476Z" fill="white"/>
<g opacity="0.3">
<rect x="130" y="130" width="60" height="60" rx="16" fill="#202632"/>
<path d="M162 151.094L163.534 143.947C163.601 143.58 163.301 143.263 162.934 143.347C160.717 143.747 158.417 144.43 156.133 145.396C145.866 149.712 139.649 158.192 142.265 164.324C144.232 168.922 150.616 170.889 158.017 169.739L156.483 176.887C156.417 177.253 156.717 177.57 157.083 177.487C159.3 177.087 161.6 176.404 163.884 175.437C174.151 171.122 180.352 162.641 177.735 156.493C175.785 151.911 169.401 149.945 162 151.094Z" fill="white"/>
</g>
<path d="M152.453 158.594V152.758H153.594V153.469H153.641C153.797 153.125 154.141 152.703 154.852 152.703C155.789 152.703 156.57 153.43 156.57 154.883C156.57 156.297 155.82 157.07 154.852 157.07C154.156 157.07 153.805 156.672 153.641 156.32H153.609V158.594H152.453ZM153.586 154.875C153.586 155.641 153.914 156.148 154.484 156.148C155.078 156.148 155.391 155.625 155.391 154.875C155.391 154.133 155.078 153.625 154.484 153.625C153.906 153.625 153.586 154.109 153.586 154.875ZM158.477 154.547V157H157.32V152.758H158.422V153.5H158.469C158.664 153.008 159.117 152.703 159.742 152.703C160.625 152.703 161.211 153.305 161.203 154.297V157H160.055V154.5C160.055 153.977 159.766 153.664 159.289 153.664C158.805 153.664 158.477 153.984 158.477 154.547ZM164.008 158.68C162.836 158.68 162.117 158.156 162.047 157.352H163.188C163.25 157.688 163.57 157.844 164.031 157.844C164.57 157.844 164.93 157.617 164.93 157.023V156.25H164.875C164.719 156.594 164.344 156.938 163.664 156.938C162.703 156.938 161.938 156.266 161.938 154.852C161.938 153.414 162.727 152.703 163.664 152.703C164.375 152.703 164.719 153.125 164.875 153.469H164.922V152.758H166.07V157.047C166.07 158.125 165.211 158.68 164.008 158.68ZM164.023 156.07C164.602 156.07 164.93 155.617 164.93 154.867C164.93 154.109 164.602 153.625 164.023 153.625C163.438 153.625 163.125 154.133 163.125 154.867C163.125 155.602 163.438 156.07 164.023 156.07ZM155.984 163.164C155.984 164 156.836 164.93 158.469 165.133L158.078 165.938C156.836 165.758 155.926 165.184 155.461 164.414C154.992 165.184 154.09 165.758 152.859 165.938L152.461 165.133C154.078 164.93 154.938 164 154.938 163.164V162.82H155.984V163.164ZM158.695 166.477V167.289H155.93V169.719H154.945V167.289H152.211V166.477H158.695ZM165.117 162.609V166.828H164.125V165.148H163.016V164.344H164.125V162.609H165.117ZM162.688 166.984C164.203 166.992 165.133 167.492 165.141 168.359C165.133 169.219 164.203 169.727 162.688 169.727C161.172 169.727 160.242 169.219 160.242 168.359C160.242 167.492 161.172 166.992 162.688 166.984ZM162.688 167.75C161.742 167.75 161.234 167.945 161.234 168.359C161.234 168.766 161.742 168.969 162.688 168.969C163.633 168.969 164.148 168.766 164.148 168.359C164.148 167.945 163.633 167.75 162.688 167.75ZM163.227 163.039V163.836H161.812C161.836 164.664 162.336 165.5 163.445 165.867L162.953 166.648C162.168 166.395 161.629 165.879 161.32 165.234C161.004 165.961 160.438 166.547 159.594 166.836L159.078 166.047C160.246 165.656 160.77 164.727 160.797 163.836H159.367V163.039H163.227Z" fill="#FF0101"/>
<rect x="66" y="130" width="60" height="60" rx="16" fill="#FFEB00"/>
<path fill-rule="evenodd" clip-rule="evenodd" d="M77.968 152.004C73.5898 152.004 70.0358 154.81 70.0358 158.27C70.0358 160.494 71.5073 162.446 73.7163 163.559L72.9679 166.351C72.939 166.437 72.9643 166.528 73.0258 166.589C73.0691 166.633 73.127 166.654 73.1885 166.654C73.2355 166.654 73.2825 166.636 73.3258 166.604L76.54 164.434C77.0063 164.499 77.4836 164.539 77.968 164.539C82.3463 164.539 85.9003 161.734 85.9003 158.274C85.9003 154.814 82.3499 152.008 77.968 152.008V152.004Z" fill="black"/>
<path d="M92.5852 163.476V167.522H89.7037V152.601H91.7356L92.0899 153.548C92.7009 152.937 93.6301 152.286 95.1305 152.286C97.9541 152.286 99.2955 154.398 99.2738 157.811C99.2738 161.383 97.2021 163.671 94.2411 163.671C93.6699 163.671 93.236 163.632 92.5852 163.473V163.476ZM92.5852 155.009V161.462C92.7443 161.481 93.1384 161.52 93.5144 161.52C95.568 161.52 96.3561 160.081 96.3561 157.811C96.3561 155.819 95.8247 154.615 94.1869 154.615C93.6554 154.615 93.0625 154.774 92.5888 155.009H92.5852Z" fill="black"/>
<path d="M105.547 156.806H107.184V156.451C107.184 155.269 106.512 154.716 105.348 154.716C104.458 154.716 103.316 154.973 102.387 155.428L101.599 153.494C102.625 152.782 104.202 152.29 105.604 152.29C108.367 152.29 109.867 153.751 109.867 156.535V163.382H107.835L107.539 162.475C106.374 163.324 105.308 163.679 104.343 163.679C102.231 163.679 101.045 162.417 101.045 160.284C101.045 158.013 102.625 156.809 105.543 156.809L105.547 156.806ZM107.184 160.613V158.639H105.861C104.382 158.639 103.63 159.17 103.63 160.237C103.63 161.047 104.046 161.441 104.892 161.441C105.68 161.441 106.689 161.047 107.181 160.613H107.184Z" fill="black"/>
<path d="M118.591 162.272C117.586 164.955 116.382 166.911 114.625 167.996L112.85 166.358C113.877 165.468 114.607 164.601 115.236 163.436L111.407 152.999L114.267 152.229L116.715 160.696L119.141 152.192L121.964 152.981L118.591 162.276V162.272Z" fill="black"/>
<rect x="2" y="130" width="60" height="60" rx="16" fill="#0046FF"/>
<path d="M32.0004 142.222C22.1856 142.222 14.2227 150.185 14.2227 160C14.2227 169.815 22.1856 177.778 32.0004 177.778C41.8153 177.778 49.7782 169.815 49.7782 160C49.7782 150.185 41.8212 142.222 32.0004 142.222ZM32.3708 174.522C30.2442 174.821 26.7794 174.283 24.4377 172.796C22.3828 171.499 21.1581 169.875 20.3636 168.226C19.5512 166.541 19.1689 164.498 20.0351 164.6C20.4413 164.648 20.7878 165.412 21.5703 166.41C22.102 167.091 22.5978 167.664 22.9682 167.748C23.1354 167.784 23.2728 167.706 23.3923 167.485C23.6133 167.061 23.912 166.26 24.4437 165.609C24.8738 165.114 25.3935 164.881 25.6982 166.093C25.8415 166.697 25.961 167.324 26.0267 167.867C26.1223 168.638 26.1701 169.098 26.4389 169.223C26.6958 169.349 27.1259 169.188 27.8308 168.925C28.3326 168.74 28.9777 168.501 29.7961 168.268C30.5488 168.053 31.0267 168.166 30.5428 169.331C30.3158 169.881 30.0829 170.346 29.2704 171.517C29.1271 171.726 29.1569 171.93 29.3302 172.103C29.605 172.372 30.2203 172.7 30.9013 172.999C31.4449 173.232 32.09 173.441 32.5201 173.56C33.1892 173.752 33.0578 174.427 32.3828 174.522H32.3708ZM41.4927 170.699C40.8296 171.774 39.4437 172.939 37.7591 173.716C37.5022 173.829 37.2334 173.793 37.1617 173.584C37.102 173.405 37.2454 173.196 37.4126 172.999C39.605 170.155 37.9741 167.545 34.4377 165.526C31.8212 164.032 30.1605 163.172 28.231 162.037C22.5799 158.71 21.4867 155.806 21.2657 154.092C20.7101 149.761 24.2943 146.511 27.9742 145.729C28.0877 145.705 28.3804 145.657 28.4759 145.902C28.5715 146.147 28.3505 146.326 28.225 146.404C26.5763 147.312 24.9574 149.235 25.1366 151.374C25.2322 152.569 25.746 154.289 28.9837 156.595C30.9371 157.987 33.3266 159.128 38.1474 162.019C43.243 165.072 42.6635 168.799 41.4927 170.693V170.699ZM42.2872 154.438C41.1223 155.86 39.9634 155.335 39.0673 153.327C38.5118 152.079 37.777 151.774 37.2573 152.103C36.6898 152.461 36.9168 153.315 37.55 154.301C37.9622 154.946 37.777 155.705 37.3469 156.153C36.8929 156.625 36.1581 156.81 35.3517 156.637C33.918 156.32 32.5082 154.403 33.5357 150.209C33.9538 148.519 33.1414 147.796 32.6217 147.145C32.3648 146.822 32.335 146.625 32.4246 146.493C32.5261 146.35 32.7651 146.338 33.1832 146.428C33.7328 146.541 34.5512 146.828 35.2203 146.93C35.6623 147.001 36.1641 147.019 36.6898 146.995C38.1175 146.941 39.1749 147.162 40.2501 147.694C42.0781 148.602 42.2693 150.161 41.2477 150.036C40.8953 149.994 40.4413 149.725 40.0649 149.546C39.8141 149.427 39.599 149.385 39.4377 149.498C39.2884 149.606 39.2227 149.833 39.3302 150.06C39.5572 150.538 40.3278 150.783 41.3672 151.075C43.1892 151.577 43.225 153.268 42.2752 154.438H42.2872Z" fill="white"/>
<rect x="514" y="66" width="60" height="60" rx="16" fill="#EBF0FF"/>
<g clip-path="url(#clip0_11124_105386)">
<path d="M553.934 80.5135H533C530.522 80.5135 528.514 82.5219 528.514 84.9994V105.934C528.514 108.411 530.522 110.42 533 110.42H553.934C556.412 110.42 558.42 108.411 558.42 105.934V84.9994C558.42 82.5219 556.412 80.5135 553.934 80.5135Z" fill="#5784FF"/>
<path opacity="0.7" d="M553.934 80.5135H533C530.522 80.5135 528.514 82.5219 528.514 84.9994V105.934C528.514 108.411 530.522 110.42 533 110.42H553.934C556.412 110.42 558.42 108.411 558.42 105.934V84.9994C558.42 82.5219 556.412 80.5135 553.934 80.5135Z" fill="white"/>
<path d="M528.514 87.99V84.9994C528.514 82.5172 530.517 80.5135 533 80.5135H535.99" stroke="#5784FF" stroke-width="2.09344" stroke-linecap="round" stroke-linejoin="round"/>
<path d="M558.416 87.99V84.9994C558.416 82.5172 556.412 80.5135 553.93 80.5135H550.939" stroke="#5784FF" stroke-width="2.09344" stroke-linecap="round" stroke-linejoin="round"/>
<path d="M558.416 102.943V105.934C558.416 108.416 556.412 110.42 553.93 110.42H550.939" stroke="#5784FF" stroke-width="2.09344" stroke-linecap="round" stroke-linejoin="round"/>
<path d="M528.514 102.943V105.934C528.514 108.416 530.517 110.42 533 110.42H535.99" stroke="#5784FF" stroke-width="2.09344" stroke-linecap="round" stroke-linejoin="round"/>
<path d="M540.94 89.1714C540.94 88.3456 540.27 87.6761 539.445 87.6761C538.619 87.6761 537.949 88.3456 537.949 89.1714V90.6667C537.949 91.4925 538.619 92.162 539.445 92.162C540.27 92.162 540.94 91.4925 540.94 90.6667V89.1714Z" fill="#5784FF"/>
<path d="M548.985 89.1714C548.985 88.3456 548.315 87.6761 547.489 87.6761C546.664 87.6761 545.994 88.3456 545.994 89.1714V90.6667C545.994 91.4925 546.664 92.162 547.489 92.162C548.315 92.162 548.985 91.4925 548.985 90.6667V89.1714Z" fill="#5784FF"/>
<path d="M550.194 96.5283C550.194 100.252 547.189 103.257 543.465 103.257C539.742 103.257 536.736 100.252 536.736 96.5283" stroke="#5784FF" stroke-width="2.09344" stroke-linecap="round" stroke-linejoin="round"/>
<path d="M543.465 93.5226V97.4104" stroke="#5784FF" stroke-width="2.09344" stroke-linecap="round" stroke-linejoin="round"/>
</g>
<rect x="450" y="66" width="60" height="60" rx="16" fill="#EBF0FF"/>
<g clip-path="url(#clip1_11124_105386)">
<path d="M479.363 94.2422C483.293 94.2422 486.474 91.0897 486.474 87.2032C486.474 83.3166 483.293 80.1642 479.363 80.1642C475.433 80.1642 472.252 83.3166 472.252 87.2032C472.252 91.0897 475.433 94.2422 479.363 94.2422ZM482.962 95.9983H475.764C470.884 95.9983 466.926 99.9569 466.926 104.851V110.076C466.926 111.041 467.718 111.832 468.696 111.832H490.044C491.023 111.832 491.815 111.041 491.815 110.062V104.837C491.815 99.9569 487.856 95.9983 482.976 95.9983H482.962Z" fill="#5784FF"/>
<path d="M475.043 103.41L478.066 106.649L483.68 101.179" stroke="white" stroke-width="2.13333" stroke-linecap="round" stroke-linejoin="round"/>
</g>
<rect x="386" y="66" width="60" height="60" rx="16" fill="#EBF0FF"/>
<path d="M411.744 86.1091V83.8141C411.744 81.4707 413.651 79.5636 415.995 79.5636C418.338 79.5636 420.245 81.4707 420.245 83.8141V86.1091" stroke="#5784FF" stroke-width="2.58586" stroke-linecap="round" stroke-linejoin="round"/>
<path d="M421.399 85.0584H410.603C409.121 85.0584 407.92 86.2596 407.92 87.7412V94.6584C407.92 96.1401 409.121 97.3412 410.603 97.3412H421.399C422.88 97.3412 424.082 96.1401 424.082 94.6584V87.7412C424.082 86.2596 422.88 85.0584 421.399 85.0584Z" fill="#5784FF"/>
<path opacity="0.3" d="M421.399 85.0584H410.603C409.121 85.0584 407.92 86.2596 407.92 87.7412V94.6584C407.92 96.1401 409.121 97.3412 410.603 97.3412H421.399C422.88 97.3412 424.082 96.1401 424.082 94.6584V87.7412C424.082 86.2596 422.88 85.0584 421.399 85.0584Z" fill="white"/>
<path d="M427.312 100.574H404.685C401.115 100.574 398.221 103.468 398.221 107.038C398.221 110.609 401.115 113.503 404.685 113.503H427.312C430.882 113.503 433.776 110.609 433.776 107.038C433.776 103.468 430.882 100.574 427.312 100.574Z" fill="#5784FF"/>
<path d="M405.477 108.978C406.548 108.978 407.416 108.109 407.416 107.038C407.416 105.967 406.548 105.099 405.477 105.099C404.405 105.099 403.537 105.967 403.537 107.038C403.537 108.109 404.405 108.978 405.477 108.978Z" fill="white"/>
<path d="M412.49 108.978C413.561 108.978 414.43 108.109 414.43 107.038C414.43 105.967 413.561 105.099 412.49 105.099C411.419 105.099 410.551 105.967 410.551 107.038C410.551 108.109 411.419 108.978 412.49 108.978Z" fill="white"/>
<path d="M419.504 108.978C420.575 108.978 421.443 108.109 421.443 107.038C421.443 105.967 420.575 105.099 419.504 105.099C418.433 105.099 417.564 105.967 417.564 107.038C417.564 108.109 418.433 108.978 419.504 108.978Z" fill="white"/>
<path d="M426.518 108.978C427.589 108.978 428.457 108.109 428.457 107.038C428.457 105.967 427.589 105.099 426.518 105.099C425.446 105.099 424.578 105.967 424.578 107.038C424.578 108.109 425.446 108.978 426.518 108.978Z" fill="white"/>
<rect x="66" y="66" width="60" height="60" rx="16" fill="#EBF0FF"/>
<path d="M86.4574 86.4546H105.548V105.545" stroke="#5784FF" stroke-width="2.33333" stroke-miterlimit="10"/>
<path d="M86.4545 110.999C89.4669 110.999 91.909 108.557 91.909 105.545C91.909 102.532 89.4669 100.09 86.4545 100.09C83.442 100.09 80.9999 102.532 80.9999 105.545C80.9999 108.557 83.442 110.999 86.4545 110.999Z" fill="#5784FF"/>
<path opacity="0.3" d="M86.4545 110.999C89.4669 110.999 91.909 108.557 91.909 105.545C91.909 102.532 89.4669 100.09 86.4545 100.09C83.442 100.09 80.9999 102.532 80.9999 105.545C80.9999 108.557 83.442 110.999 86.4545 110.999Z" fill="white"/>
<path d="M105.545 91.9091C108.558 91.9091 111 89.467 111 86.4546C111 83.4421 108.558 81 105.545 81C102.533 81 100.091 83.4421 100.091 86.4546C100.091 89.467 102.533 91.9091 105.545 91.9091Z" fill="#5784FF"/>
<path d="M105.545 111C108.558 111 111 108.558 111 105.546C111 102.533 108.558 100.091 105.545 100.091C102.533 100.091 100.091 102.533 100.091 105.546C100.091 108.558 102.533 111 105.545 111Z" fill="#5784FF"/>
<path d="M86.4562 91.9091C89.4686 91.9091 91.9107 89.467 91.9107 86.4546C91.9107 83.4421 89.4686 81 86.4562 81C83.4437 81 81.0016 83.4421 81.0016 86.4546C81.0016 89.467 83.4437 91.9091 86.4562 91.9091Z" fill="#5784FF"/>
<path d="M86.4549 88.7739C87.7352 88.7739 88.7731 87.736 88.7731 86.4557C88.7731 85.1754 87.7352 84.1375 86.4549 84.1375C85.1746 84.1375 84.1367 85.1754 84.1367 86.4557C84.1367 87.736 85.1746 88.7739 86.4549 88.7739Z" fill="white"/>
<path d="M105.548 88.7739C106.828 88.7739 107.866 87.736 107.866 86.4557C107.866 85.1754 106.828 84.1375 105.548 84.1375C104.268 84.1375 103.23 85.1754 103.23 86.4557C103.23 87.736 104.268 88.7739 105.548 88.7739Z" fill="white"/>
<path d="M105.548 107.865C106.828 107.865 107.866 106.827 107.866 105.547C107.866 104.266 106.828 103.228 105.548 103.228C104.268 103.228 103.23 104.266 103.23 105.547C103.23 106.827 104.268 107.865 105.548 107.865Z" fill="white"/>
<rect x="322" y="66" width="60" height="60" rx="16" fill="#EBF0FF"/>
<g clip-path="url(#clip2_11124_105386)">
<path d="M348.383 108.638C351.904 104.669 353.665 99.2457 352.735 93.6953" stroke="#5784FF" stroke-width="1.7178" stroke-linecap="round" stroke-linejoin="round"/>
<path d="M348.869 96.2505C348.983 100.375 347.265 104.258 344.316 106.97" stroke="#5784FF" stroke-width="1.7178" stroke-linecap="round" stroke-linejoin="round"/>
<path d="M357.059 96.5905C357.059 95.1499 356.915 93.6952 356.615 92.2405C356.171 90.0513 354.009 88.6249 351.791 89.0768C350.13 89.4017 348.913 90.6869 348.584 92.2122" stroke="#5784FF" stroke-width="1.7178" stroke-linecap="round" stroke-linejoin="round"/>
<path d="M353.119 109.174C354.909 106.589 356.154 103.637 356.712 100.502" stroke="#5784FF" stroke-width="1.7178" stroke-linecap="round" stroke-linejoin="round"/>
<path d="M344.103 100.277C343.458 101.901 342.399 103.342 341.039 104.457" stroke="#5784FF" stroke-width="1.7178" stroke-linecap="round" stroke-linejoin="round"/>
<path d="M360.809 100.884C361.324 97.8336 361.281 94.6417 360.637 91.4357C359.75 87.0575 355.426 84.2328 350.989 85.1084C346.551 85.9841 343.688 90.2494 344.575 94.6276C344.676 95.0937 344.733 95.5597 344.761 96.0258" stroke="#5784FF" stroke-width="1.7178" stroke-linecap="round" stroke-linejoin="round"/>
<path d="M358.477 108.113C358.992 107.053 359.45 105.966 359.822 104.85" stroke="#5784FF" stroke-width="1.7178" stroke-linecap="round" stroke-linejoin="round"/>
<path d="M340.34 93.5254C340.369 94.1609 340.44 94.7965 340.569 95.4462C341.027 97.6918 340.168 99.895 338.508 101.279" stroke="#5784FF" stroke-width="1.7178" stroke-linecap="round" stroke-linejoin="round"/>
<path d="M364.918 92.2103C364.846 91.6877 364.746 91.1652 364.646 90.6426C363.3 84.0894 356.815 79.8382 350.173 81.1658C345.792 82.0415 342.428 85.1204 341.025 88.9902" stroke="#5784FF" stroke-width="1.7178" stroke-linecap="round" stroke-linejoin="round"/>
<path d="M364.215 104.415C364.873 101.985 365.231 99.4433 365.246 96.8587" stroke="#5784FF" stroke-width="1.7178" stroke-linecap="round" stroke-linejoin="round"/>
</g>
<rect x="258" y="66" width="60" height="60" rx="16" fill="#EBF0FF"/>
<g clip-path="url(#clip3_11124_105386)">
<path d="M272.848 84.6129V82.1805C272.848 80.5784 274.159 79.2676 275.761 79.2676H278.193" stroke="#5784FF" stroke-width="1.74781" stroke-linecap="round" stroke-linejoin="round"/>
<path d="M303.099 84.6129V82.1806C303.099 80.5785 301.788 79.2676 300.186 79.2676H297.754" stroke="#5784FF" stroke-width="1.74781" stroke-linecap="round" stroke-linejoin="round"/>
<path d="M272.848 105.965V108.397C272.848 109.999 274.159 111.31 275.761 111.31H278.193" stroke="#5784FF" stroke-width="1.74781" stroke-linecap="round" stroke-linejoin="round"/>
<path d="M303.099 105.965V108.397C303.099 109.999 301.788 111.31 300.186 111.31H297.754" stroke="#5784FF" stroke-width="1.74781" stroke-linecap="round" stroke-linejoin="round"/>
<path d="M296.501 93.8617V88.4727C296.501 85.4141 293.995 82.9089 290.937 82.9089H284.586C281.528 82.9089 279.022 85.4141 279.022 88.4727V93.8617C277.42 93.8617 276.109 95.1725 276.109 96.7746C276.109 98.3768 277.42 99.6876 279.022 99.6876C279.037 99.6876 279.066 99.6876 279.081 99.6876C279.459 103.067 281.746 105.849 284.848 106.955C285.766 107.276 286.742 107.465 287.762 107.465C288.781 107.465 289.757 107.276 290.675 106.955C293.777 105.863 296.078 103.067 296.442 99.6876C296.457 99.6876 296.486 99.6876 296.501 99.6876C298.103 99.6876 299.414 98.3768 299.414 96.7746C299.414 95.1725 298.103 93.8617 296.501 93.8617Z" fill="#5784FF"/>
<path opacity="0.3" d="M290.674 88.9388L293.747 92.012L296.5 92.0411V88.4873C296.5 85.4287 293.995 82.9235 290.936 82.9235H284.585C281.527 82.9235 279.021 85.4287 279.021 88.4873V91.8809H287.761L290.674 88.9388Z" fill="white"/>
<path d="M290.676 99.5273C290.676 101.129 289.365 102.44 287.763 102.44C286.16 102.44 284.85 101.129 284.85 99.5273" stroke="white" stroke-width="1.31086" stroke-linecap="round" stroke-linejoin="round"/>
</g>
<rect x="130" y="66" width="60" height="60" rx="16" fill="#EBF0FF"/>
<path d="M167.778 78.1111H152.222C149.645 78.1111 147.556 80.2005 147.556 82.7778V109.222C147.556 111.8 149.645 113.889 152.222 113.889H167.778C170.355 113.889 172.444 111.8 172.444 109.222V82.7778C172.444 80.2005 170.355 78.1111 167.778 78.1111Z" fill="#5784FF"/>
<path d="M147.556 104.555H172.444V109.689C172.444 112.008 170.564 113.889 168.244 113.889H151.756C149.436 113.889 147.556 112.008 147.556 109.689V104.555Z" fill="white" fill-opacity="0.3"/>
<path d="M159.996 110.778C160.855 110.778 161.552 110.081 161.552 109.222C161.552 108.363 160.855 107.667 159.996 107.667C159.137 107.667 158.44 108.363 158.44 109.222C158.44 110.081 159.137 110.778 159.996 110.778Z" fill="white"/>
<path d="M155.333 84.3334H164.666" stroke="white" stroke-width="1.4" stroke-linecap="round"/>
<rect x="386" y="258" width="60" height="60" rx="16" fill="#F5F8FF"/>
<path d="M427.643 307.32H404.361C403.909 307.32 403.539 306.95 403.539 306.498V274.046C403.539 273.594 403.909 273.224 404.361 273.224L427.643 270.224C428.097 270.224 428.465 270.592 428.465 271.046V306.498C428.465 306.952 428.098 307.32 427.643 307.32Z" fill="#D0D9F4"/>
<path d="M412.473 299.815C412.473 299.263 412.92 298.815 413.473 298.815H418.529C419.082 298.815 419.529 299.263 419.529 299.815V307.32H412.473V299.815Z" fill="#91AAD5"/>
<path d="M402.084 272.68L429.916 268.68V272.744L402.084 276.744V272.68Z" fill="#4D94FD"/>
<rect x="407.91" y="280.073" width="16.1836" height="3" rx="1.5" fill="white"/>
<rect x="407.91" y="286.403" width="16.1836" height="3" rx="1.5" fill="white"/>
<rect x="407.91" y="292.323" width="16.1836" height="3" rx="1.5" fill="white"/>
<rect x="322" y="258" width="60" height="60" rx="16" fill="#F5F8FF"/>
<path d="M337.754 282.501C337.754 281.967 338.038 281.473 338.5 281.204L351.246 273.792C351.712 273.521 352.288 273.521 352.754 273.792L365.5 281.204C365.962 281.473 366.246 281.967 366.246 282.501V301.145C366.246 301.974 365.575 302.645 364.746 302.645H339.254C338.425 302.645 337.754 301.974 337.754 301.145V282.501Z" fill="#D0D9F4"/>
<path d="M347.007 293.531C347.007 292.426 347.902 291.531 349.007 291.531H355.278C356.383 291.531 357.278 292.426 357.278 293.531V302.646H347.007V293.531Z" fill="#91AAD5"/>
<path fill-rule="evenodd" clip-rule="evenodd" d="M350.858 271.962C351.562 271.541 352.44 271.541 353.143 271.962L366.862 280.184C367.914 280.815 368.256 282.18 367.625 283.233C366.994 284.286 365.63 284.628 364.577 283.997L352.001 276.459L339.425 283.997C338.372 284.628 337.007 284.286 336.376 283.233C335.745 282.18 336.087 280.815 337.14 280.184L350.858 271.962Z" fill="#4D94FD"/>
<rect x="258" y="258" width="60" height="60" rx="16" fill="#F5F8FF"/>
<path d="M276.304 279.536H299.699C300.159 279.536 300.533 280.388 300.533 281.436V307.819C300.533 308.648 299.861 309.319 299.033 309.319H276.97C276.141 309.319 275.47 308.648 275.47 307.819V281.436C275.47 280.388 275.843 279.536 276.304 279.536Z" fill="#D0D9F4"/>
<path d="M303.445 281.804L300.712 273.617C300.598 273.277 300.28 273.047 299.921 273.047H276.078C275.72 273.047 275.401 273.277 275.288 273.617L272.554 281.804C272.374 282.345 272.776 282.903 273.345 282.903H302.655C303.224 282.903 303.626 282.345 303.445 281.804Z" fill="#4D94FD"/>
<path d="M282.414 285.903H279.929C279.468 285.903 279.095 286.277 279.095 286.738V289.225C279.095 289.686 279.468 290.059 279.929 290.059H282.414C282.874 290.059 283.248 289.686 283.248 289.225V286.738C283.248 286.277 282.874 285.903 282.414 285.903Z" fill="white"/>
<path d="M289.242 285.903H286.757C286.296 285.903 285.923 286.277 285.923 286.738V289.225C285.923 289.686 286.296 290.059 286.757 290.059H289.242C289.702 290.059 290.076 289.686 290.076 289.225V286.738C290.076 286.277 289.702 285.903 289.242 285.903Z" fill="white"/>
<path d="M296.058 285.903H293.573C293.113 285.903 292.739 286.277 292.739 286.738V289.225C292.739 289.686 293.113 290.059 293.573 290.059H296.058C296.519 290.059 296.892 289.686 296.892 289.225V286.738C296.892 286.277 296.519 285.903 296.058 285.903Z" fill="white"/>
<path d="M282.414 292.903H279.929C279.468 292.903 279.095 293.277 279.095 293.738V296.225C279.095 296.686 279.468 297.059 279.929 297.059H282.414C282.874 297.059 283.248 296.686 283.248 296.225V293.738C283.248 293.277 282.874 292.903 282.414 292.903Z" fill="white"/>
<path d="M289.242 292.903H286.757C286.296 292.903 285.923 293.277 285.923 293.738V296.225C285.923 296.686 286.296 297.059 286.757 297.059H289.242C289.702 297.059 290.076 296.686 290.076 296.225V293.738C290.076 293.277 289.702 292.903 289.242 292.903Z" fill="white"/>
<path d="M296.058 292.903H293.573C293.113 292.903 292.739 293.277 292.739 293.738V296.225C292.739 296.686 293.113 297.059 293.573 297.059H296.058C296.519 297.059 296.892 296.686 296.892 296.225V293.738C296.892 293.277 296.519 292.903 296.058 292.903Z" fill="white"/>
<path d="M284.472 301.813C284.472 301.261 284.919 300.813 285.472 300.813H290.528C291.081 300.813 291.528 301.261 291.528 301.813V309.319H284.472V301.813Z" fill="#91AAD5"/>
<rect x="194" y="258" width="60" height="60" rx="16" fill="#F5F8FF"/>
<path d="M232.432 276.405L239.283 283.001H225.58L232.432 276.405Z" fill="#BBC2D9"/>
<path d="M225.553 282.401H239.307V306.602C239.307 307.154 238.859 307.602 238.307 307.602H226.553C226.001 307.602 225.553 307.154 225.553 306.602V282.401Z" fill="#BBC2D9"/>
<path d="M230.56 284.601H229.338C229.066 284.601 228.846 284.789 228.846 285.019V286.403C228.846 286.634 229.066 286.821 229.338 286.821H230.56C230.831 286.821 231.051 286.634 231.051 286.403V285.019C231.051 284.789 230.831 284.601 230.56 284.601Z" fill="white"/>
<path d="M235.526 284.601H234.304C234.033 284.601 233.813 284.789 233.813 285.019V286.403C233.813 286.634 234.033 286.821 234.304 286.821H235.526C235.798 286.821 236.018 286.634 236.018 286.403V285.019C236.018 284.789 235.798 284.601 235.526 284.601Z" fill="white"/>
<path d="M230.56 288.848H229.338C229.066 288.848 228.846 289.035 228.846 289.265V290.649C228.846 290.88 229.066 291.067 229.338 291.067H230.56C230.831 291.067 231.051 290.88 231.051 290.649V289.265C231.051 289.035 230.831 288.848 230.56 288.848Z" fill="white"/>
<path d="M235.526 288.848H234.304C234.033 288.848 233.813 289.035 233.813 289.265V290.649C233.813 290.88 234.033 291.067 234.304 291.067H235.526C235.798 291.067 236.018 290.88 236.018 290.649V289.265C236.018 289.035 235.798 288.848 235.526 288.848Z" fill="white"/>
<path d="M230.56 293.093H229.338C229.066 293.093 228.846 293.28 228.846 293.511V294.895C228.846 295.126 229.066 295.313 229.338 295.313H230.56C230.831 295.313 231.051 295.126 231.051 294.895V293.511C231.051 293.28 230.831 293.093 230.56 293.093Z" fill="white"/>
<path d="M235.526 293.093H234.304C234.033 293.093 233.813 293.28 233.813 293.511V294.895C233.813 295.126 234.033 295.313 234.304 295.313H235.526C235.798 295.313 236.018 295.126 236.018 294.895V293.511C236.018 293.28 235.798 293.093 235.526 293.093Z" fill="white"/>
<path d="M230.56 297.339H229.338C229.066 297.339 228.846 297.526 228.846 297.757V299.141C228.846 299.371 229.066 299.558 229.338 299.558H230.56C230.831 299.558 231.051 299.371 231.051 299.141V297.757C231.051 297.526 230.831 297.339 230.56 297.339Z" fill="white"/>
<path d="M235.526 297.339H234.304C234.033 297.339 233.813 297.526 233.813 297.757V299.141C233.813 299.371 234.033 299.558 234.304 299.558H235.526C235.798 299.558 236.018 299.371 236.018 299.141V297.757C236.018 297.526 235.798 297.339 235.526 297.339Z" fill="white"/>
<path d="M230.56 301.584H229.338C229.066 301.584 228.846 301.772 228.846 302.002V303.386C228.846 303.617 229.066 303.804 229.338 303.804H230.56C230.831 303.804 231.051 303.617 231.051 303.386V302.002C231.051 301.772 230.831 301.584 230.56 301.584Z" fill="white"/>
<path d="M235.526 301.584H234.304C234.033 301.584 233.813 301.772 233.813 302.002V303.386C233.813 303.617 234.033 303.804 234.304 303.804H235.526C235.798 303.804 236.018 303.617 236.018 303.386V302.002C236.018 301.772 235.798 301.584 235.526 301.584Z" fill="white"/>
<path fill-rule="evenodd" clip-rule="evenodd" d="M231.38 275.29C231.952 274.754 232.841 274.749 233.419 275.279L240.651 281.905C241.262 282.465 241.303 283.414 240.744 284.024C240.184 284.635 239.235 284.677 238.624 284.117L232.418 278.43L226.363 284.105C225.758 284.672 224.809 284.641 224.242 284.037C223.676 283.432 223.707 282.483 224.311 281.917L231.38 275.29Z" fill="#4D94FD"/>
<path d="M217.592 268.424L226.197 276.707H208.988L217.592 268.424Z" fill="#D0D9F4"/>
<path d="M208.953 275.953H226.225V306.602C226.225 307.154 225.777 307.602 225.225 307.602H209.953C209.4 307.602 208.953 307.154 208.953 306.602V275.953Z" fill="#D0D9F4"/>
<path d="M215.239 278.717H213.705C213.364 278.717 213.087 278.952 213.087 279.242V280.979C213.087 281.269 213.364 281.504 213.705 281.504H215.239C215.58 281.504 215.857 281.269 215.857 280.979V279.242C215.857 278.952 215.58 278.717 215.239 278.717Z" fill="white"/>
<path d="M221.475 278.717H219.941C219.6 278.717 219.323 278.952 219.323 279.242V280.979C219.323 281.269 219.6 281.504 219.941 281.504H221.475C221.816 281.504 222.093 281.269 222.093 280.979V279.242C222.093 278.952 221.816 278.717 221.475 278.717Z" fill="white"/>
<path d="M215.239 284.049H213.705C213.364 284.049 213.087 284.284 213.087 284.574V286.312C213.087 286.601 213.364 286.836 213.705 286.836H215.239C215.58 286.836 215.857 286.601 215.857 286.312V284.574C215.857 284.284 215.58 284.049 215.239 284.049Z" fill="white"/>
<path d="M221.475 284.049H219.941C219.6 284.049 219.323 284.284 219.323 284.574V286.312C219.323 286.601 219.6 286.836 219.941 286.836H221.475C221.816 286.836 222.093 286.601 222.093 286.312V284.574C222.093 284.284 221.816 284.049 221.475 284.049Z" fill="white"/>
<path d="M215.239 289.381H213.705C213.364 289.381 213.087 289.616 213.087 289.906V291.644C213.087 291.934 213.364 292.169 213.705 292.169H215.239C215.58 292.169 215.857 291.934 215.857 291.644V289.906C215.857 289.616 215.58 289.381 215.239 289.381Z" fill="white"/>
<path d="M221.475 289.381H219.941C219.6 289.381 219.323 289.616 219.323 289.906V291.644C219.323 291.934 219.6 292.169 219.941 292.169H221.475C221.816 292.169 222.093 291.934 222.093 291.644V289.906C222.093 289.616 221.816 289.381 221.475 289.381Z" fill="white"/>
<path d="M215.239 294.713H213.705C213.364 294.713 213.087 294.948 213.087 295.238V296.976C213.087 297.265 213.364 297.5 213.705 297.5H215.239C215.58 297.5 215.857 297.265 215.857 296.976V295.238C215.857 294.948 215.58 294.713 215.239 294.713Z" fill="white"/>
<path d="M221.475 294.713H219.941C219.6 294.713 219.323 294.948 219.323 295.238V296.976C219.323 297.265 219.6 297.5 219.941 297.5H221.475C221.816 297.5 222.093 297.265 222.093 296.976V295.238C222.093 294.948 221.816 294.713 221.475 294.713Z" fill="white"/>
<path d="M215.239 300.045H213.705C213.364 300.045 213.087 300.28 213.087 300.569V302.307C213.087 302.597 213.364 302.832 213.705 302.832H215.239C215.58 302.832 215.857 302.597 215.857 302.307V300.569C215.857 300.28 215.58 300.045 215.239 300.045Z" fill="white"/>
<path d="M221.475 300.045H219.941C219.6 300.045 219.323 300.28 219.323 300.569V302.307C219.323 302.597 219.6 302.832 219.941 302.832H221.475C221.816 302.832 222.093 302.597 222.093 302.307V300.569C222.093 300.28 221.816 300.045 221.475 300.045Z" fill="white"/>
<path fill-rule="evenodd" clip-rule="evenodd" d="M216.534 267.304C217.106 266.767 217.995 266.762 218.573 267.292L227.655 275.614C228.266 276.173 228.307 277.122 227.748 277.733C227.188 278.344 226.239 278.385 225.628 277.826L217.572 270.443L209.708 277.814C209.104 278.381 208.154 278.35 207.588 277.745C207.021 277.141 207.052 276.192 207.656 275.625L216.534 267.304Z" fill="#4D94FD"/>
<rect x="130" y="258" width="60" height="60" rx="16" fill="#F5F8FF"/>
<rect x="144.031" y="269.177" width="26.9849" height="33.7312" rx="2" fill="#D0D9F4"/>
<rect opacity="0.34" x="148.53" y="290.389" width="17.99" height="2.12381" rx="1.06191" fill="#91AAD5"/>
<rect opacity="0.34" x="148.53" y="296.008" width="17.99" height="2.12381" rx="1.06191" fill="#91AAD5"/>
<path d="M152.241 277.277C152.241 277.101 152.333 276.938 152.484 276.848L157.264 273.994C157.422 273.9 157.619 273.9 157.777 273.994L162.557 276.848C162.708 276.938 162.801 277.101 162.801 277.277V284.488C162.801 284.764 162.577 284.988 162.301 284.988H152.741C152.464 284.988 152.241 284.764 152.241 284.488V277.277Z" fill="white"/>
<path d="M155.331 281.894C155.331 280.912 156.127 280.116 157.109 280.116H157.938C158.92 280.116 159.716 280.912 159.716 281.894V284.988H155.331V281.894Z" fill="#91AAD5"/>
<path fill-rule="evenodd" clip-rule="evenodd" d="M156.998 273.185C157.32 272.987 157.725 272.987 158.047 273.185L163.131 276.314C163.602 276.603 163.748 277.219 163.459 277.69C163.169 278.16 162.553 278.307 162.083 278.017L157.522 275.211L152.962 278.017C152.492 278.307 151.876 278.16 151.586 277.69C151.297 277.219 151.443 276.603 151.914 276.314L156.998 273.185Z" fill="url(#paint0_linear_11124_105386)"/>
<path d="M175.267 305.894H166.766C166.233 305.894 165.802 306.325 165.802 306.858V309.629C165.802 310.162 166.233 310.593 166.766 310.593H175.267C175.799 310.593 176.231 310.162 176.231 309.629V306.858C176.231 306.325 175.799 305.894 175.267 305.894Z" fill="#E52A4B"/>
<path d="M168.033 304.006H174.006C174.488 304.006 174.878 304.396 174.878 304.878V305.895H167.162V304.878C167.162 304.396 167.553 304.007 168.033 304.007V304.006Z" fill="#FF365A"/>
<path d="M171.016 284.988C171.016 284.988 165.186 284.988 165.186 291.289C165.186 295.381 168.356 299.075 168.356 304.006H173.675C173.675 299.075 176.846 295.381 176.846 291.289C176.846 284.988 171.016 284.988 171.016 284.988Z" fill="#FE5271"/>
<path d="M165.802 309.464H176.231V310.259C176.231 310.443 176.081 310.594 175.896 310.594H166.137C165.952 310.594 165.802 310.443 165.802 310.259L165.802 309.464Z" fill="#D62747"/>
<rect x="66" y="258" width="60" height="60" rx="16" fill="#F5F8FF"/>
<path d="M81.7549 290.754C81.7549 290.219 82.039 289.725 82.5008 289.457L95.2469 282.045C95.7131 281.774 96.2889 281.774 96.755 282.045L109.501 289.457C109.963 289.725 110.247 290.219 110.247 290.754V309.398C110.247 310.226 109.575 310.898 108.747 310.898H83.2549C82.4265 310.898 81.7549 310.226 81.7549 309.398V290.754Z" fill="#D0D9F4"/>
<path d="M91.008 301.783C91.008 300.679 91.9034 299.783 93.008 299.783H99.2792C100.384 299.783 101.279 300.679 101.279 301.783V310.899H91.008V301.783Z" fill="#91AAD5"/>
<path fill-rule="evenodd" clip-rule="evenodd" d="M94.8594 280.215C95.5627 279.793 96.4409 279.793 97.1442 280.215L110.863 288.437C111.915 289.068 112.257 290.433 111.626 291.485C110.995 292.538 109.631 292.88 108.578 292.249L96.0018 284.712L83.4257 292.249C82.373 292.88 81.0082 292.538 80.3772 291.485C79.7463 290.433 80.0882 289.068 81.1409 288.437L94.8594 280.215Z" fill="#4D94FD"/>
<path d="M102.65 265.102C99.3421 265.102 96.5419 267.317 95.5957 270.373H82.7623C82.2106 270.373 81.8239 270.928 82.0052 271.459L82.884 274.038C83.0649 274.569 83.5557 274.925 84.1065 274.925H86.1323V275.692C86.1323 276.274 86.5946 276.746 87.1653 276.746H88.3467C88.9174 276.746 89.3797 276.274 89.3797 275.692V274.925H90.6294V275.692C90.6294 276.274 91.0917 276.746 91.6623 276.746H92.8438C93.4145 276.746 93.8768 276.274 93.8768 275.692V274.925H95.5961C96.5423 277.98 99.3425 280.196 102.65 280.196C106.736 280.196 110.047 276.817 110.047 272.649C110.047 268.481 106.735 265.102 102.65 265.102ZM105.612 273.494C104.886 273.494 104.297 272.893 104.297 272.152C104.297 271.411 104.886 270.81 105.612 270.81C106.339 270.81 106.928 271.411 106.928 272.152C106.928 272.893 106.339 273.494 105.612 273.494Z" fill="#FFD455"/>
<path d="M105.611 271.719C106.181 271.719 106.665 272.089 106.848 272.607C106.898 272.465 106.927 272.312 106.927 272.152C106.927 271.411 106.338 270.81 105.611 270.81C104.885 270.81 104.295 271.411 104.295 272.152C104.295 272.312 104.324 272.465 104.374 272.607C104.557 272.089 105.041 271.719 105.611 271.719Z" fill="#FFC447"/>
<path d="M105.631 287.147H105.597C105.229 287.147 104.929 286.842 104.929 286.466V272.833C104.929 272.457 105.229 272.152 105.597 272.152H105.631C106 272.152 106.299 272.457 106.299 272.833V286.466C106.299 286.842 106 287.147 105.631 287.147Z" fill="#CDCDCD"/>
<rect x="2" y="258" width="60" height="60" rx="16" fill="#F5F8FF"/>
<path d="M17.7529 291.607C17.7529 291.072 18.0371 290.578 18.4989 290.31L31.245 282.898C31.7111 282.627 32.2869 282.627 32.7531 282.898L45.4992 290.31C45.961 290.578 46.2451 291.072 46.2451 291.607V310.251C46.2451 311.079 45.5735 311.751 44.7451 311.751H19.2529C18.4245 311.751 17.7529 311.079 17.7529 310.251V291.607Z" fill="#D0D9F4"/>
<path d="M27.006 302.636C27.006 301.532 27.9014 300.636 29.006 300.636H35.2773C36.3818 300.636 37.2773 301.532 37.2773 302.636V311.752H27.006V302.636Z" fill="#91AAD5"/>
<path fill-rule="evenodd" clip-rule="evenodd" d="M30.8574 281.068C31.5607 280.646 32.439 280.646 33.1423 281.068L46.8607 289.29C47.9134 289.921 48.2553 291.286 47.6244 292.338C46.9934 293.391 45.6286 293.733 44.5759 293.102L31.9998 285.565L19.4238 293.102C18.3711 293.733 17.0062 293.391 16.3753 292.338C15.7443 291.286 16.0862 289.921 17.1389 289.29L30.8574 281.068Z" fill="#4D94FD"/>
<path d="M31.9917 264.248C28.9469 264.248 26.4785 266.752 26.4785 269.84C26.4785 275.431 31.9917 278.711 31.9917 278.711C31.9917 278.711 37.505 275.431 37.505 269.84C37.505 266.752 35.0366 264.248 31.9917 264.248Z" fill="url(#paint1_linear_11124_105386)"/>
<path d="M31.9917 272.073C33.208 272.073 34.1941 271.073 34.1941 269.84C34.1941 268.606 33.208 267.606 31.9917 267.606C30.7753 267.606 29.7892 268.606 29.7892 269.84C29.7892 271.073 30.7753 272.073 31.9917 272.073Z" fill="white"/>
<circle cx="160" cy="352" r="30" fill="#E8FAF4"/>
<path d="M160.5 367.96C166.299 367.96 171 366.293 171 364.236C171 362.179 166.299 360.511 160.5 360.511C154.701 360.511 150 362.179 150 364.236C150 366.293 154.701 367.96 160.5 367.96Z" fill="url(#paint2_linear_11124_105386)"/>
<path d="M170.73 346.229C170.73 351.88 160.5 364.237 160.5 364.237C160.5 364.237 150.271 351.88 150.271 346.229C150.271 340.579 154.85 336 160.5 336C166.151 336 170.73 340.579 170.73 346.229Z" fill="url(#paint3_linear_11124_105386)"/>
<path d="M160.498 349.795C162.541 349.795 164.197 348.139 164.197 346.097C164.197 344.054 162.541 342.398 160.498 342.398C158.456 342.398 156.8 344.054 156.8 346.097C156.8 348.139 158.456 349.795 160.498 349.795Z" fill="white"/>
<circle cx="224" cy="352" r="30" fill="#F2F7FF"/>
<path d="M232.989 344.694L225.817 352L221.374 348.808L221.307 348.762L217.964 346.372L214.04 343.562L209.513 340.318C209.451 340.273 209.395 340.222 209.345 340.17C208.892 339.715 208.876 338.947 209.351 338.458C210.72 337.064 212.783 336.62 214.599 337.342L218.607 338.941L226.455 342.077L233 344.688L232.989 344.694Z" fill="url(#paint4_linear_11124_105386)"/>
<path d="M231.311 343L224 350.177L227.234 354.688L235.684 366.488C235.729 366.549 235.775 366.605 235.826 366.655C236.287 367.108 237.056 367.125 237.54 366.644C238.941 365.269 239.379 363.212 238.656 361.401L233.924 349.545L231.311 343Z" fill="url(#paint5_linear_11124_105386)"/>
<path d="M219.503 365.617L219.46 362.406L233.526 349.945C235.946 348.05 237.565 345.31 238.058 342.278L238.265 341.021C238.576 339.096 236.912 337.427 234.985 337.743L233.728 337.949C230.69 338.442 227.953 340.061 226.057 342.479L213.482 356.427L210.379 356.497C209.987 356.426 209.585 356.552 209.298 356.833C208.73 357.402 208.855 358.347 209.549 358.749L214.428 361.57L217.25 366.446C217.652 367.14 218.603 367.266 219.166 366.698C219.448 366.416 219.574 366.014 219.503 365.617Z" fill="url(#paint6_linear_11124_105386)"/>
<path d="M217.092 360.469C217.524 360.037 217.524 359.336 217.092 358.904C216.66 358.473 215.959 358.473 215.527 358.904L212.408 362.022C211.976 362.454 211.976 363.155 212.408 363.587C212.84 364.019 213.54 364.019 213.973 363.587L217.092 360.469Z" fill="url(#paint7_linear_11124_105386)"/>
<path d="M233.206 342.794C233.991 343.578 234.655 344.402 235.198 345.222C235.59 344.488 235.902 343.709 236.108 342.894C235.691 342.351 235.228 341.813 234.71 341.29C234.192 340.767 233.649 340.305 233.105 339.893C232.291 340.099 231.511 340.41 230.777 340.803C231.602 341.346 232.426 342.009 233.206 342.794Z" fill="url(#paint8_linear_11124_105386)"/>
<path d="M233.206 342.794C233.991 343.578 234.655 344.402 235.198 345.222C235.59 344.488 235.902 343.709 236.108 342.894C235.691 342.351 235.228 341.813 234.71 341.29C234.192 340.767 233.649 340.305 233.105 339.893C232.291 340.099 231.511 340.41 230.777 340.803C231.602 341.346 232.426 342.009 233.206 342.794Z" fill="url(#paint9_linear_11124_105386)"/>
<g clip-path="url(#clip4_11124_105386)">
<rect y="384" width="64" height="64" fill="#0046FF" fill-opacity="0.6"/>
<path d="M24.5 415.727L29.1875 420.5L39.5 410" stroke="white" stroke-width="2" stroke-linecap="round" stroke-linejoin="round"/>
</g>
<circle cx="352.166" cy="351.694" r="30" fill="#F2F7FF"/>
<path d="M339.555 356.444C339.555 354.971 340.749 353.777 342.222 353.777C343.695 353.777 344.889 354.971 344.889 356.444V362.666C344.889 363.648 344.093 364.444 343.111 364.444H341.333C340.351 364.444 339.555 363.648 339.555 362.666V356.444Z" fill="#384C96"/>
<path d="M359.111 356.444C359.111 354.971 360.305 353.777 361.778 353.777C363.25 353.777 364.444 354.971 364.444 356.444V362.666C364.444 363.648 363.648 364.444 362.667 364.444H360.889C359.907 364.444 359.111 363.648 359.111 362.666V356.444Z" fill="#384C96"/>
<path fill-rule="evenodd" clip-rule="evenodd" d="M345.519 339.556C343.856 339.556 342.416 340.707 342.05 342.329L340.657 348.509C339.017 348.825 337.778 350.268 337.778 352V359.111C337.778 360.093 338.574 360.889 339.556 360.889H364.444C365.426 360.889 366.222 360.093 366.222 359.111V352C366.222 350.268 364.983 348.825 363.343 348.509L361.95 342.329C361.584 340.707 360.144 339.556 358.481 339.556H345.519Z" fill="url(#paint10_linear_11124_105386)"/>
<path d="M337.778 357.333H366.222V359.111C366.222 360.093 365.426 360.888 364.444 360.888H339.556C338.574 360.888 337.778 360.093 337.778 359.111V357.333Z" fill="#5074F5"/>
<circle cx="342.667" cy="353.333" r="1.33333" fill="white"/>
<circle cx="361.333" cy="353.333" r="1.33333" fill="white"/>
<g filter="url(#filter0_i_11124_105386)">
<path d="M344.669 343.539C344.877 342.762 345.581 342.223 346.386 342.223H357.614C358.418 342.223 359.122 342.762 359.331 343.539L360.889 349.334H343.111L344.669 343.539Z" fill="url(#paint11_linear_11124_105386)"/>
</g>
<circle cx="288.166" cy="352.428" r="30" fill="#F9F2FF"/>
<rect x="283.171" y="339.146" width="9.04618" height="5.27486" rx="1.55058" stroke="#384C96" stroke-width="1.77778"/>
<g clip-path="url(#clip5_11124_105386)">
<rect x="273.472" y="342.672" width="28.4444" height="19.6276" rx="2.66667" fill="url(#paint12_linear_11124_105386)"/>
<g style="mix-blend-mode:multiply">
<circle cx="274.03" cy="343.153" r="2.72146" fill="url(#paint13_linear_11124_105386)"/>
</g>
<g style="mix-blend-mode:multiply">
<circle cx="274.03" cy="361.82" r="2.72146" fill="url(#paint14_linear_11124_105386)"/>
</g>
<g style="mix-blend-mode:multiply">
<circle cx="301.359" cy="343.153" r="2.72146" fill="url(#paint15_linear_11124_105386)"/>
</g>
<g style="mix-blend-mode:multiply">
<circle cx="301.359" cy="361.82" r="2.72146" fill="url(#paint16_linear_11124_105386)"/>
</g>
</g>
<g filter="url(#filter1_i_11124_105386)">
<rect x="278.112" y="342.672" width="1.77778" height="19.6276" fill="url(#paint17_linear_11124_105386)"/>
</g>
<g filter="url(#filter2_i_11124_105386)">
<rect x="295.5" y="342.672" width="1.77778" height="19.6276" fill="url(#paint18_linear_11124_105386)"/>
</g>
<path d="M293.329 353.719C292.913 353.822 292.493 353.568 292.39 353.152L291.16 348.175C291.109 347.969 291.145 347.751 291.259 347.572L292.353 345.86C292.574 345.515 293.024 345.401 293.382 345.599L295.19 346.599C295.379 346.703 295.516 346.882 295.568 347.091L296.797 352.063C296.9 352.478 296.646 352.899 296.23 353.001L293.329 353.719Z" fill="#384C96"/>
<path d="M292.218 342.673L292.895 346.23" stroke="#384C96" stroke-width="1.77778" stroke-linecap="round"/>
<rect x="292.13" y="348.109" width="2.53231" height="4.68316" rx="0.444444" transform="rotate(-14.6355 292.13 348.109)" fill="#688DFA"/>
<circle cx="96.166" cy="352.428" r="30" fill="#F2F7FF"/>
<path d="M90.0147 356.919C93.0911 356.919 95.585 354.425 95.585 351.348C95.585 348.272 93.0911 345.778 90.0147 345.778C86.9384 345.778 84.4445 348.272 84.4445 351.348C84.4445 354.425 86.9384 356.919 90.0147 356.919Z" fill="url(#paint19_linear_11124_105386)"/>
<path d="M91.0054 357.554H89.0236L85.0348 354.816H94.9941L91.0054 357.554Z" fill="url(#paint20_linear_11124_105386)"/>
<path d="M91.0005 357.555H89.0237V360.667H91.0005V357.555Z" fill="url(#paint21_linear_11124_105386)"/>
<g filter="url(#filter3_i_11124_105386)">
<path d="M105.778 338.667L99.0449 359.363H90.7884C89.0611 359.363 87.658 360.758 87.658 362.475V363.111C87.658 364.828 89.0611 366.223 90.7884 366.223H96.8955C98.4606 366.223 99.8467 365.209 100.312 363.725L107.965 339.112L107.111 338.667H105.778Z" fill="url(#paint22_linear_11124_105386)"/>
</g>
<path d="M103.01 345.437L105.077 338.373C105.179 338.021 105.489 337.778 105.836 337.778H107.65C108.184 337.778 108.567 338.329 108.408 338.872L106.341 345.936C106.239 346.287 105.929 346.53 105.583 346.53H103.769C103.235 346.53 102.852 345.979 103.01 345.437Z" fill="#262C6A"/>
<circle cx="32.166" cy="351.428" r="30" fill="#FFF1F0"/>
<path d="M20 349.183C20 347.932 20.6581 346.772 21.7328 346.13L30.1772 341.088C31.3 340.418 32.7 340.418 33.8228 341.088L42.2672 346.13C43.3419 346.772 44 347.932 44 349.183V361.778C44 363.741 42.4081 365.333 40.4444 365.333H23.5556C21.5919 365.333 20 363.741 20 361.778V349.183Z" fill="url(#paint23_linear_11124_105386)"/>
<path d="M28.4444 358.222C28.4444 357.24 29.2404 356.445 30.2222 356.445H34.6667C35.6485 356.445 36.4444 357.24 36.4444 358.222V365.333H28.4444V358.222Z" fill="#ABB6C1"/>
<g filter="url(#filter4_i_11124_105386)">
<path d="M20.4444 347.556L32 340.444L43.5556 347.556" stroke="url(#paint24_linear_11124_105386)" stroke-width="4.44444" stroke-linecap="round" stroke-linejoin="round"/>
</g>
<path d="M46.2222 359.454C46.2222 363.327 43.0158 366.441 39.1427 366.21C35.1623 365.973 32.4379 362.145 32.9509 358.143C33.2614 355.709 34.4023 353.622 35.6443 352.003C35.8601 351.721 36.0817 353.994 36.3033 353.744C36.5255 353.487 38.5853 349.923 39.3015 348.67C39.3323 348.615 39.3746 348.567 39.4256 348.53C39.4765 348.492 39.535 348.466 39.5969 348.454C39.6588 348.441 39.7228 348.441 39.7844 348.456C39.8461 348.47 39.904 348.497 39.9542 348.535C41.3929 349.621 46.2222 353.699 46.2222 359.454Z" fill="#FF5823"/>
<g filter="url(#filter5_i_11124_105386)">
<path d="M44.4445 361.875C44.4445 364.333 42.1507 366.309 39.3608 366.22C36.3493 366.125 34.2843 363.553 34.7263 360.905C35.3644 357.107 39.5427 354.667 39.5427 354.667C39.5427 354.667 44.4445 357.53 44.4445 361.875Z" fill="#FFB02E"/>
</g>
<rect x="194" y="66" width="60" height="60" rx="15.1704" fill="#EBF0FF"/>
<g clip-path="url(#clip6_11124_105386)">
<path d="M237.924 82.2016H214.946C212.326 82.2016 210.203 84.1856 210.203 86.6329V98.8717C210.203 101.319 212.326 103.303 214.946 103.303H237.924C240.544 103.303 242.667 101.319 242.667 98.8717V86.6329C242.667 84.1856 240.544 82.2016 237.924 82.2016Z" fill="#5784FF"/>
<path d="M237.924 82.2016H214.946C212.326 82.2016 210.203 84.1856 210.203 86.6329V98.8717C210.203 101.319 212.326 103.303 214.946 103.303H237.924C240.544 103.303 242.667 101.319 242.667 98.8717V86.6329C242.667 84.1856 240.544 82.2016 237.924 82.2016Z" fill="white" fill-opacity="0.3"/>
<path d="M233.055 87.0697H210.077C207.457 87.0697 205.334 89.2063 205.334 91.8419V105.022C205.334 107.658 207.457 109.794 210.077 109.794H233.055C235.674 109.794 237.798 107.658 237.798 105.022V91.8419C237.798 89.2063 235.674 87.0697 233.055 87.0697Z" fill="#5784FF"/>
<path d="M210.203 93.5627H232.928" stroke="white" stroke-width="1.46087" stroke-linecap="round" stroke-linejoin="round"/>
<rect x="228.059" y="100.056" width="4.86957" height="4.86957" rx="1.62319" fill="white" stroke="white" stroke-width="1.46087"/>
</g>
<defs>
<filter id="filter0_i_11124_105386" x="343.111" y="342.223" width="17.7778" height="8" filterUnits="userSpaceOnUse" color-interpolation-filters="sRGB">
<feFlood flood-opacity="0" result="BackgroundImageFix"/>
<feBlend mode="normal" in="SourceGraphic" in2="BackgroundImageFix" result="shape"/>
<feColorMatrix in="SourceAlpha" type="matrix" values="0 0 0 0 0 0 0 0 0 0 0 0 0 0 0 0 0 0 127 0" result="hardAlpha"/>
<feOffset dy="0.888889"/>
<feGaussianBlur stdDeviation="0.444444"/>
<feComposite in2="hardAlpha" operator="arithmetic" k2="-1" k3="1"/>
<feColorMatrix type="matrix" values="0 0 0 0 1 0 0 0 0 1 0 0 0 0 1 0 0 0 0.3 0"/>
<feBlend mode="normal" in2="shape" result="effect1_innerShadow_11124_105386"/>
</filter>
<filter id="filter1_i_11124_105386" x="278.112" y="342.672" width="1.77778" height="19.6276" filterUnits="userSpaceOnUse" color-interpolation-filters="sRGB">
<feFlood flood-opacity="0" result="BackgroundImageFix"/>
<feBlend mode="normal" in="SourceGraphic" in2="BackgroundImageFix" result="shape"/>
<feColorMatrix in="SourceAlpha" type="matrix" values="0 0 0 0 0 0 0 0 0 0 0 0 0 0 0 0 0 0 127 0" result="hardAlpha"/>
<feOffset/>
<feGaussianBlur stdDeviation="0.888889"/>
<feComposite in2="hardAlpha" operator="arithmetic" k2="-1" k3="1"/>
<feColorMatrix type="matrix" values="0 0 0 0 0 0 0 0 0 0 0 0 0 0 0 0 0 0 0.1 0"/>
<feBlend mode="normal" in2="shape" result="effect1_innerShadow_11124_105386"/>
</filter>
<filter id="filter2_i_11124_105386" x="295.5" y="342.672" width="1.77778" height="19.6276" filterUnits="userSpaceOnUse" color-interpolation-filters="sRGB">
<feFlood flood-opacity="0" result="BackgroundImageFix"/>
<feBlend mode="normal" in="SourceGraphic" in2="BackgroundImageFix" result="shape"/>
<feColorMatrix in="SourceAlpha" type="matrix" values="0 0 0 0 0 0 0 0 0 0 0 0 0 0 0 0 0 0 127 0" result="hardAlpha"/>
<feOffset/>
<feGaussianBlur stdDeviation="0.888889"/>
<feComposite in2="hardAlpha" operator="arithmetic" k2="-1" k3="1"/>
<feColorMatrix type="matrix" values="0 0 0 0 0 0 0 0 0 0 0 0 0 0 0 0 0 0 0.1 0"/>
<feBlend mode="normal" in2="shape" result="effect1_innerShadow_11124_105386"/>
</filter>
<filter id="filter3_i_11124_105386" x="87.658" y="338.667" width="20.3065" height="27.5556" filterUnits="userSpaceOnUse" color-interpolation-filters="sRGB">
<feFlood flood-opacity="0" result="BackgroundImageFix"/>
<feBlend mode="normal" in="SourceGraphic" in2="BackgroundImageFix" result="shape"/>
<feColorMatrix in="SourceAlpha" type="matrix" values="0 0 0 0 0 0 0 0 0 0 0 0 0 0 0 0 0 0 127 0" result="hardAlpha"/>
<feOffset/>
<feGaussianBlur stdDeviation="0.888889"/>
<feComposite in2="hardAlpha" operator="arithmetic" k2="-1" k3="1"/>
<feColorMatrix type="matrix" values="0 0 0 0 0.415686 0 0 0 0 0.521569 0 0 0 0 0.713726 0 0 0 0.5 0"/>
<feBlend mode="normal" in2="shape" result="effect1_innerShadow_11124_105386"/>
</filter>
<filter id="filter4_i_11124_105386" x="18.2219" y="338.222" width="27.5562" height="11.5559" filterUnits="userSpaceOnUse" color-interpolation-filters="sRGB">
<feFlood flood-opacity="0" result="BackgroundImageFix"/>
<feBlend mode="normal" in="SourceGraphic" in2="BackgroundImageFix" result="shape"/>
<feColorMatrix in="SourceAlpha" type="matrix" values="0 0 0 0 0 0 0 0 0 0 0 0 0 0 0 0 0 0 127 0" result="hardAlpha"/>
<feOffset/>
<feGaussianBlur stdDeviation="0.888889"/>
<feComposite in2="hardAlpha" operator="arithmetic" k2="-1" k3="1"/>
<feColorMatrix type="matrix" values="0 0 0 0 0 0 0 0 0 0 0 0 0 0 0 0 0 0 0.1 0"/>
<feBlend mode="normal" in2="shape" result="effect1_innerShadow_11124_105386"/>
</filter>
<filter id="filter5_i_11124_105386" x="34.6667" y="354.667" width="9.77777" height="13.3333" filterUnits="userSpaceOnUse" color-interpolation-filters="sRGB">
<feFlood flood-opacity="0" result="BackgroundImageFix"/>
<feBlend mode="normal" in="SourceGraphic" in2="BackgroundImageFix" result="shape"/>
<feColorMatrix in="SourceAlpha" type="matrix" values="0 0 0 0 0 0 0 0 0 0 0 0 0 0 0 0 0 0 127 0" result="hardAlpha"/>
<feOffset dy="1.77778"/>
<feGaussianBlur stdDeviation="1.33333"/>
<feComposite in2="hardAlpha" operator="arithmetic" k2="-1" k3="1"/>
<feColorMatrix type="matrix" values="0 0 0 0 1 0 0 0 0 0.403922 0 0 0 0 0.137255 0 0 0 0.8 0"/>
<feBlend mode="normal" in2="shape" result="effect1_innerShadow_11124_105386"/>
</filter>
<linearGradient id="paint0_linear_11124_105386" x1="157.675" y1="274.037" x2="157.675" y2="277.079" gradientUnits="userSpaceOnUse">
<stop stop-color="#4991FC"/>
<stop offset="1" stop-color="#62AAFF"/>
</linearGradient>
<linearGradient id="paint1_linear_11124_105386" x1="27.7387" y1="274.872" x2="36.3644" y2="266.367" gradientUnits="userSpaceOnUse">
<stop stop-color="#FF244E"/>
<stop offset="1" stop-color="#E85545"/>
</linearGradient>
<linearGradient id="paint2_linear_11124_105386" x1="160.5" y1="360.511" x2="160.5" y2="367.96" gradientUnits="userSpaceOnUse">
<stop stop-color="#B2EDDF"/>
<stop offset="1" stop-color="#CBF1E8"/>
</linearGradient>
<linearGradient id="paint3_linear_11124_105386" x1="153" y1="341" x2="166.5" y2="357.5" gradientUnits="userSpaceOnUse">
<stop stop-color="#46D99B"/>
<stop offset="1" stop-color="#1ECDC3"/>
</linearGradient>
<linearGradient id="paint4_linear_11124_105386" x1="208.993" y1="344.5" x2="232.989" y2="344.5" gradientUnits="userSpaceOnUse">
<stop stop-color="#7EC2FF"/>
<stop offset="0.99" stop-color="#6F7FFF"/>
</linearGradient>
<linearGradient id="paint5_linear_11124_105386" x1="223.996" y1="355.001" x2="238.993" y2="355.001" gradientUnits="userSpaceOnUse">
<stop stop-color="#6F7FFF"/>
<stop offset="1" stop-color="#7EC2FF"/>
</linearGradient>
<linearGradient id="paint6_linear_11124_105386" x1="220.479" y1="345.656" x2="230.344" y2="355.526" gradientUnits="userSpaceOnUse">
<stop stop-color="#E4E9FF"/>
<stop offset="1" stop-color="#D2DAFD"/>
</linearGradient>
<linearGradient id="paint7_linear_11124_105386" x1="213.967" y1="360.463" x2="215.531" y2="362.028" gradientUnits="userSpaceOnUse">
<stop stop-color="#89C7FF"/>
<stop offset="0.99" stop-color="#7E8DFF"/>
</linearGradient>
<linearGradient id="paint8_linear_11124_105386" x1="231.307" y1="339.617" x2="236.383" y2="344.696" gradientUnits="userSpaceOnUse">
<stop stop-color="#9ED1FF"/>
<stop offset="0.99" stop-color="#919DFD"/>
</linearGradient>
<linearGradient id="paint9_linear_11124_105386" x1="231.75" y1="344.25" x2="236" y2="340.75" gradientUnits="userSpaceOnUse">
<stop stop-color="#89C7FF"/>
<stop offset="0.99" stop-color="#7E8DFF"/>
</linearGradient>
<linearGradient id="paint10_linear_11124_105386" x1="358.046" y1="357.333" x2="358.046" y2="338.841" gradientUnits="userSpaceOnUse">
<stop stop-color="#6691FF"/>
<stop offset="1" stop-color="#82A5FF"/>
</linearGradient>
<linearGradient id="paint11_linear_11124_105386" x1="343.555" y1="342.223" x2="348.46" y2="354.483" gradientUnits="userSpaceOnUse">
<stop stop-color="#F2F9FF"/>
<stop offset="1" stop-color="#DDEEFF"/>
</linearGradient>
<linearGradient id="paint12_linear_11124_105386" x1="284.651" y1="347.989" x2="290.818" y2="356.928" gradientUnits="userSpaceOnUse">
<stop stop-color="#E8ECFF"/>
<stop offset="1" stop-color="#D0D8F7"/>
</linearGradient>
<linearGradient id="paint13_linear_11124_105386" x1="273.447" y1="341.906" x2="275.277" y2="343.735" gradientUnits="userSpaceOnUse">
<stop stop-color="#E8ECFF"/>
<stop offset="1" stop-color="#D0D8F7"/>
</linearGradient>
<linearGradient id="paint14_linear_11124_105386" x1="273.447" y1="360.573" x2="275.277" y2="362.402" gradientUnits="userSpaceOnUse">
<stop stop-color="#E8ECFF"/>
<stop offset="1" stop-color="#D0D8F7"/>
</linearGradient>
<linearGradient id="paint15_linear_11124_105386" x1="300.776" y1="341.906" x2="302.606" y2="343.735" gradientUnits="userSpaceOnUse">
<stop stop-color="#E8ECFF"/>
<stop offset="1" stop-color="#D0D8F7"/>
</linearGradient>
<linearGradient id="paint16_linear_11124_105386" x1="300.776" y1="360.573" x2="302.606" y2="362.402" gradientUnits="userSpaceOnUse">
<stop stop-color="#E8ECFF"/>
<stop offset="1" stop-color="#D0D8F7"/>
</linearGradient>
<linearGradient id="paint17_linear_11124_105386" x1="279.379" y1="359.028" x2="279.379" y2="342.015" gradientUnits="userSpaceOnUse">
<stop stop-color="#6691FF"/>
<stop offset="1" stop-color="#82A5FF"/>
</linearGradient>
<linearGradient id="paint18_linear_11124_105386" x1="296.767" y1="359.028" x2="296.767" y2="342.015" gradientUnits="userSpaceOnUse">
<stop stop-color="#6691FF"/>
<stop offset="1" stop-color="#82A5FF"/>
</linearGradient>
<linearGradient id="paint19_linear_11124_105386" x1="87.585" y1="353.778" x2="93.9534" y2="347.41" gradientUnits="userSpaceOnUse">
<stop stop-color="#F3F5FC"/>
<stop offset="1" stop-color="#E2E5F2"/>
</linearGradient>
<linearGradient id="paint20_linear_11124_105386" x1="87.5222" y1="357.304" x2="92.5018" y2="352.329" gradientUnits="userSpaceOnUse">
<stop stop-color="#9ED1FF"/>
<stop offset="0.99" stop-color="#919DFD"/>
</linearGradient>
<linearGradient id="paint21_linear_11124_105386" x1="88.7434" y1="360.382" x2="91.2858" y2="357.835" gradientUnits="userSpaceOnUse">
<stop stop-color="#9ED1FF"/>
<stop offset="0.99" stop-color="#919DFD"/>
</linearGradient>
<linearGradient id="paint22_linear_11124_105386" x1="106.495" y1="362.038" x2="98.1183" y2="350.929" gradientUnits="userSpaceOnUse">
<stop stop-color="#6A85B6"/>
<stop offset="1" stop-color="#BAC8E0"/>
</linearGradient>
<linearGradient id="paint23_linear_11124_105386" x1="32" y1="341.333" x2="32" y2="365.333" gradientUnits="userSpaceOnUse">
<stop stop-color="#F1F3FB"/>
<stop offset="1" stop-color="#E3E9EF"/>
</linearGradient>
<linearGradient id="paint24_linear_11124_105386" x1="32.3457" y1="340.444" x2="32.3457" y2="347.358" gradientUnits="userSpaceOnUse">
<stop stop-color="#4991FC"/>
<stop offset="1" stop-color="#62AAFF"/>
</linearGradient>
<clipPath id="clip0_11124_105386">
<rect width="32" height="31.9995" fill="white" transform="translate(527.463 79.467)"/>
</clipPath>
<clipPath id="clip1_11124_105386">
<rect width="24.8889" height="31.6683" fill="white" transform="translate(466.926 80.1641)"/>
</clipPath>
<clipPath id="clip2_11124_105386">
<rect width="28.4444" height="29.9416" fill="white" transform="translate(337.662 80.0779)"/>
</clipPath>
<clipPath id="clip3_11124_105386">
<rect width="32" height="33.7904" fill="white" transform="translate(271.973 78.3937)"/>
</clipPath>
<clipPath id="clip4_11124_105386">
<rect width="64" height="64" fill="white" transform="translate(0 384)"/>
</clipPath>
<clipPath id="clip5_11124_105386">
<rect x="273.472" y="342.672" width="28.4444" height="19.6276" rx="2.66667" fill="white"/>
</clipPath>
<clipPath id="clip6_11124_105386">
<rect width="37.3333" height="27.5942" fill="white" transform="translate(205.334 82.2014)"/>
</clipPath>
</defs>
</svg>
