<svg width="360" height="360" viewBox="0 0 360 360" fill="none" xmlns="http://www.w3.org/2000/svg">
<circle cx="18" cy="18" r="15.75" fill="#0046FF"/>
<path d="M17.8816 11.25V24.5132M11.25 17.8816H24.5132" stroke="white" stroke-width="1.8" stroke-linecap="round" stroke-linejoin="round"/>
<rect x="182" y="38" width="32" height="32" rx="9.6" fill="#00C300"/>
<path d="M200.534 54.7378L195.259 46.8889H190.889V61.5556H195.466V53.7067L200.741 61.5556H205.111V46.8889H200.534V54.7378Z" fill="white"/>
<g opacity="0.3">
<rect x="144" y="36" width="36" height="36" rx="10.8" fill="#202632"/>
<path d="M163.2 48.6567L164.12 44.368C164.16 44.148 163.98 43.9581 163.76 44.0081C162.43 44.248 161.05 44.6579 159.679 45.2377C153.519 47.8269 149.789 52.9154 151.359 56.5943C152.539 59.3535 156.369 60.5331 160.81 59.8433L159.889 64.132C159.849 64.352 160.03 64.5419 160.25 64.4919C161.58 64.252 162.96 63.8421 164.33 63.2623C170.49 60.6731 174.211 55.5846 172.641 51.8957C171.47 49.1465 167.64 47.9669 163.2 48.6567Z" fill="white"/>
</g>
<rect x="110" y="38" width="32" height="32" rx="8.53333" fill="#FFEB00"/>
<path fill-rule="evenodd" clip-rule="evenodd" d="M117.246 50.1184C115.12 50.1184 113.395 51.4804 113.395 53.1601C113.395 54.2396 114.109 55.1874 115.182 55.728L114.818 57.083C114.804 57.1251 114.817 57.169 114.847 57.1989C114.868 57.2199 114.896 57.2305 114.926 57.2305C114.948 57.2305 114.971 57.2217 114.992 57.2059L116.553 56.1528C116.779 56.1843 117.011 56.2037 117.246 56.2037C119.371 56.2037 121.097 54.8416 121.097 53.1619C121.097 51.4822 119.373 50.1201 117.246 50.1201V50.1184Z" fill="black"/>
<path d="M124.342 55.6876V57.6517H122.943V50.408H123.93L124.102 50.8678C124.398 50.5712 124.85 50.2553 125.578 50.2553C126.949 50.2553 127.6 51.2803 127.589 52.9372C127.589 54.6714 126.584 55.7824 125.146 55.7824C124.869 55.7824 124.658 55.7631 124.342 55.6859V55.6876ZM124.342 51.5769V54.71C124.419 54.7187 124.611 54.738 124.793 54.738C125.79 54.738 126.173 54.0395 126.173 52.9372C126.173 51.9701 125.915 51.3856 125.12 51.3856C124.862 51.3856 124.574 51.4628 124.344 51.5769H124.342Z" fill="black"/>
<path d="M130.635 52.4493H131.43V52.2772C131.43 51.7033 131.103 51.4347 130.538 51.4347C130.106 51.4347 129.552 51.5594 129.101 51.7805L128.718 50.8415C129.216 50.4957 129.982 50.257 130.663 50.257C132.004 50.257 132.732 50.9661 132.732 52.3176V55.642H131.746L131.602 55.2014C131.037 55.6139 130.519 55.7859 130.05 55.7859C129.025 55.7859 128.449 55.1733 128.449 54.1378C128.449 53.0355 129.216 52.451 130.633 52.451L130.635 52.4493ZM131.43 54.2975V53.3391H130.787C130.069 53.3391 129.704 53.5972 129.704 54.1149C129.704 54.5081 129.906 54.6994 130.317 54.6994C130.7 54.6994 131.189 54.5081 131.428 54.2975H131.43Z" fill="black"/>
<path d="M136.967 55.1031C136.48 56.4055 135.895 57.355 135.042 57.8816L134.18 57.0865C134.679 56.6547 135.033 56.2335 135.339 55.6683L133.48 50.601L134.868 50.2272L136.056 54.3379L137.234 50.2096L138.605 50.5922L136.967 55.1049V55.1031Z" fill="black"/>
<rect x="74" y="38" width="32" height="32" rx="9.6" fill="#0046FF"/>
<path d="M90 45.1111C85.0926 45.1111 81.1111 49.0926 81.1111 54C81.1111 58.9074 85.0926 62.8889 90 62.8889C94.9074 62.8889 98.8889 58.9074 98.8889 54C98.8889 49.0926 94.9104 45.1111 90 45.1111ZM90.1852 61.2611C89.1218 61.4104 87.3895 61.1416 86.2186 60.3979C85.1911 59.7497 84.5788 58.9373 84.1816 58.1129C83.7754 57.2706 83.5842 56.2491 84.0173 56.2999C84.2204 56.3238 84.3936 56.7061 84.7849 57.2049C85.0507 57.5454 85.2987 57.8321 85.4838 57.874C85.5675 57.8919 85.6362 57.8531 85.6959 57.7425C85.8064 57.5305 85.9558 57.1302 86.2216 56.8047C86.4367 56.5568 86.6965 56.4403 86.8488 57.0466C86.9205 57.3483 86.9803 57.6619 87.0131 57.9337C87.0609 58.319 87.0848 58.549 87.2192 58.6117C87.3476 58.6744 87.5627 58.5938 87.9151 58.4624C88.166 58.3698 88.4886 58.2503 88.8978 58.1338C89.2742 58.0263 89.5131 58.083 89.2712 58.6655C89.1577 58.9403 89.0412 59.1732 88.635 59.7587C88.5633 59.8632 88.5782 59.9648 88.6648 60.0514C88.8022 60.1858 89.1099 60.3501 89.4504 60.4994C89.7222 60.6159 90.0448 60.7204 90.2598 60.7802C90.5944 60.8758 90.5286 61.2133 90.1911 61.2611H90.1852ZM94.7461 59.3495C94.4145 59.8871 93.7216 60.4695 92.8793 60.8578C92.7509 60.9146 92.6165 60.8967 92.5806 60.7921C92.5507 60.7025 92.6224 60.598 92.7061 60.4994C93.8022 59.0777 92.9868 57.7724 91.2186 56.7628C89.9104 56.0161 89.08 55.586 88.1153 55.0185C85.2897 53.3548 84.7431 51.9032 84.6326 51.046C84.3548 48.8805 86.1469 47.2557 87.9868 46.8644C88.0436 46.8525 88.1899 46.8286 88.2377 46.951C88.2855 47.0735 88.175 47.1631 88.1123 47.2019C87.2879 47.6559 86.4785 48.6177 86.5681 49.687C86.6159 50.2844 86.8727 51.1446 88.4916 52.2975C89.4683 52.9934 90.6631 53.5639 93.0734 55.0096C95.6212 56.5358 95.3315 58.3996 94.7461 59.3465V59.3495ZM95.1433 51.2192C94.5609 51.9301 93.9815 51.6673 93.5334 50.6637C93.2556 50.0394 92.8883 49.8871 92.6284 50.0514C92.3447 50.2306 92.4582 50.6577 92.7748 51.1505C92.9809 51.4731 92.8883 51.8525 92.6732 52.0765C92.4462 52.3124 92.0788 52.405 91.6756 52.3184C90.9588 52.1601 90.2539 51.2013 90.7676 49.1045C90.9767 48.2593 90.5705 47.8979 90.3106 47.5723C90.1822 47.411 90.1672 47.3124 90.212 47.2467C90.2628 47.175 90.3823 47.1691 90.5914 47.2139C90.8662 47.2706 91.2754 47.414 91.6099 47.4648C91.8309 47.5006 92.0818 47.5096 92.3447 47.4976C93.0585 47.4707 93.5872 47.5812 94.1248 47.8471C95.0388 48.3011 95.1344 49.0806 94.6236 49.0179C94.4474 48.997 94.2204 48.8626 94.0322 48.773C93.9068 48.7133 93.7993 48.6924 93.7186 48.7491C93.6439 48.8029 93.6111 48.9164 93.6648 49.0299C93.7783 49.2688 94.1637 49.3913 94.6834 49.5376C95.5944 49.7885 95.6123 50.6338 95.1374 51.2192H95.1433Z" fill="white"/>
<rect x="2" y="38" width="32" height="32" rx="8.53333" fill="#EBF0FF"/>
<path d="M22.1481 44.4593H13.8518C12.4772 44.4593 11.3629 45.5736 11.3629 46.9481V61.0519C11.3629 62.4264 12.4772 63.5407 13.8518 63.5407H22.1481C23.5227 63.5407 24.637 62.4264 24.637 61.0519V46.9481C24.637 45.5736 23.5227 44.4593 22.1481 44.4593Z" fill="#5784FF"/>
<path d="M11.3629 58.5629H24.637V61.3006C24.637 62.5378 23.6341 63.5406 22.397 63.5406H13.6029C12.3658 63.5406 11.3629 62.5378 11.3629 61.3006V58.5629Z" fill="white" fill-opacity="0.3"/>
<path d="M17.9978 61.8815C18.456 61.8815 18.8275 61.51 18.8275 61.0519C18.8275 60.5937 18.456 60.2222 17.9978 60.2222C17.5397 60.2222 17.1682 60.5937 17.1682 61.0519C17.1682 61.51 17.5397 61.8815 17.9978 61.8815Z" fill="white"/>
<path d="M15.5109 47.7778H20.4886" stroke="white" stroke-width="0.746667" stroke-linecap="round"/>
<rect x="38" y="38" width="32" height="32" rx="8.53333" fill="#EBF0FF"/>
<g clip-path="url(#clip0_11124_106222)">
<path d="M61.8323 46.2391H48.9068C47.4335 46.2391 46.2391 47.3551 46.2391 48.7317V55.6161C46.2391 56.9927 47.4335 58.1087 48.9068 58.1087H61.8323C63.3056 58.1087 64.5 56.9927 64.5 55.6161V48.7317C64.5 47.3551 63.3056 46.2391 61.8323 46.2391Z" fill="#5784FF"/>
<path d="M61.8323 46.2391H48.9068C47.4335 46.2391 46.2391 47.3551 46.2391 48.7317V55.6161C46.2391 56.9927 47.4335 58.1087 48.9068 58.1087H61.8323C63.3056 58.1087 64.5 56.9927 64.5 55.6161V48.7317C64.5 47.3551 63.3056 46.2391 61.8323 46.2391Z" fill="white" fill-opacity="0.3"/>
<path d="M59.0932 48.9783H46.1677C44.6944 48.9783 43.5 50.1801 43.5 51.6626V59.0765C43.5 60.559 44.6944 61.7609 46.1677 61.7609H59.0932C60.5665 61.7609 61.7609 60.559 61.7609 59.0765V51.6626C61.7609 50.1801 60.5665 48.9783 59.0932 48.9783Z" fill="#5784FF"/>
<path d="M46.2391 52.6304H59.0217" stroke="white" stroke-width="0.821739" stroke-linecap="round" stroke-linejoin="round"/>
<rect x="56.2826" y="56.2826" width="2.73913" height="2.73913" rx="0.913043" fill="white" stroke="white" stroke-width="0.821739"/>
</g>
<rect x="2" y="74" width="32" height="32" rx="8.53333" fill="#EBF0FF"/>
<g clip-path="url(#clip1_11124_106222)">
<path d="M14.6869 90.5006H11.8125C10.2592 90.5006 9 91.7598 9 93.3131V96.1875C9 97.7408 10.2592 99 11.8125 99H14.6869C16.2402 99 17.4994 97.7408 17.4994 96.1875V93.3131C17.4994 91.7598 16.2402 90.5006 14.6869 90.5006Z" fill="#AAC6FF"/>
<path d="M14.6869 81H11.8125C10.2592 81 9 82.2592 9 83.8125V86.6869C9 88.2402 10.2592 89.4994 11.8125 89.4994H14.6869C16.2402 89.4994 17.4994 88.2402 17.4994 86.6869V83.8125C17.4994 82.2592 16.2402 81 14.6869 81Z" fill="#AAC6FF"/>
<path d="M24.1879 90.5006H21.3135C19.7602 90.5006 18.501 91.7598 18.501 93.3131V96.1875C18.501 97.7408 19.7602 99 21.3135 99H24.1879C25.7412 99 27.0004 97.7408 27.0004 96.1875V93.3131C27.0004 91.7598 25.7412 90.5006 24.1879 90.5006Z" fill="#0046FF"/>
<path d="M11.25 85.2525H15.2494" stroke="white" stroke-width="1.5" stroke-linecap="round" stroke-linejoin="round"/>
<path d="M24.1879 81H21.3135C19.7602 81 18.501 82.2592 18.501 83.8125V86.6869C18.501 88.2402 19.7602 89.4994 21.3135 89.4994H24.1879C25.7412 89.4994 27.0004 88.2402 27.0004 86.6869V83.8125C27.0004 82.2592 25.7412 81 24.1879 81Z" fill="#AAC6FF"/>
<path d="M20.751 85.2524H24.7504" stroke="white" stroke-width="1.5" stroke-linecap="round" stroke-linejoin="round"/>
<path d="M20.752 93.7517H24.7513" stroke="white" stroke-width="1.5" stroke-linecap="round" stroke-linejoin="round"/>
<path d="M20.752 95.7486H24.7513" stroke="white" stroke-width="1.5" stroke-linecap="round" stroke-linejoin="round"/>
<path d="M13.2524 87.2494V83.25" stroke="white" stroke-width="1.5" stroke-linecap="round" stroke-linejoin="round"/>
<path d="M11.8345 96.165L14.6638 93.3356" stroke="white" stroke-width="1.5" stroke-linecap="round" stroke-linejoin="round"/>
<path d="M14.6638 96.165L11.8345 93.3356" stroke="white" stroke-width="1.5" stroke-linecap="round" stroke-linejoin="round"/>
</g>
<rect x="38" y="74" width="32" height="32" rx="8.53333" fill="#EBF0FF"/>
<g clip-path="url(#clip2_11124_106222)">
<path d="M45.9187 83.9269V82.6296C45.9187 81.7751 46.6178 81.076 47.4723 81.076H48.7696" stroke="#5784FF" stroke-width="0.932165" stroke-linecap="round" stroke-linejoin="round"/>
<path d="M62.0529 83.9269V82.6296C62.0529 81.7752 61.3538 81.0761 60.4993 81.0761H59.202" stroke="#5784FF" stroke-width="0.932165" stroke-linecap="round" stroke-linejoin="round"/>
<path d="M45.9187 95.3146V96.6119C45.9187 97.4664 46.6178 98.1655 47.4723 98.1655H48.7696" stroke="#5784FF" stroke-width="0.932165" stroke-linecap="round" stroke-linejoin="round"/>
<path d="M62.0529 95.3146V96.6119C62.0529 97.4664 61.3538 98.1655 60.4993 98.1655H59.202" stroke="#5784FF" stroke-width="0.932165" stroke-linecap="round" stroke-linejoin="round"/>
<path d="M58.5336 88.8596V85.9854C58.5336 84.3542 57.1975 83.0181 55.5662 83.0181H52.1793C50.548 83.0181 49.2118 84.3542 49.2118 85.9854V88.8596C48.3573 88.8596 47.6582 89.5587 47.6582 90.4131C47.6582 91.2676 48.3573 91.9667 49.2118 91.9667C49.2196 91.9667 49.2351 91.9667 49.2429 91.9667C49.4449 93.7689 50.6645 95.2525 52.3191 95.8429C52.8085 96.0138 53.329 96.1148 53.8727 96.1148C54.4165 96.1148 54.937 96.0138 55.4264 95.8429C57.081 95.2603 58.3084 93.7689 58.5026 91.9667C58.5103 91.9667 58.5259 91.9667 58.5336 91.9667C59.3881 91.9667 60.0873 91.2676 60.0873 90.4131C60.0873 89.5587 59.3881 88.8596 58.5336 88.8596Z" fill="#5784FF"/>
<path opacity="0.3" d="M55.4258 86.234L57.0649 87.873L58.5331 87.8886V85.9932C58.5331 84.362 57.197 83.0259 55.5657 83.0259H52.1787C50.5474 83.0259 49.2113 84.362 49.2113 85.9932V87.8031H53.8722L55.4258 86.234Z" fill="white"/>
<path d="M55.427 91.8812C55.427 92.7357 54.7278 93.4348 53.8733 93.4348C53.0188 93.4348 52.3197 92.7357 52.3197 91.8812" stroke="white" stroke-width="0.699123" stroke-linecap="round" stroke-linejoin="round"/>
</g>
<rect x="74" y="74" width="32" height="32" rx="8.53333" fill="#EBF0FF"/>
<g clip-path="url(#clip3_11124_106222)">
<path d="M88.0708 96.7401C89.949 94.6235 90.888 91.731 90.3918 88.7708" stroke="#5784FF" stroke-width="0.916158" stroke-linecap="round" stroke-linejoin="round"/>
<path d="M88.33 90.1336C88.391 92.3331 87.4749 94.4045 85.9021 95.8507" stroke="#5784FF" stroke-width="0.916158" stroke-linecap="round" stroke-linejoin="round"/>
<path d="M92.6979 90.3149C92.6979 89.5466 92.6216 88.7707 92.4612 87.9949C92.2246 86.8274 91.0717 86.0666 89.8883 86.3076C89.0027 86.4809 88.3537 87.1663 88.1781 87.9798" stroke="#5784FF" stroke-width="0.916158" stroke-linecap="round" stroke-linejoin="round"/>
<path d="M90.5969 97.026C91.5513 95.6476 92.2155 94.0733 92.5133 92.4011" stroke="#5784FF" stroke-width="0.916158" stroke-linecap="round" stroke-linejoin="round"/>
<path d="M85.788 92.281C85.4445 93.1472 84.8795 93.9155 84.1542 94.5106" stroke="#5784FF" stroke-width="0.916158" stroke-linecap="round" stroke-linejoin="round"/>
<path d="M94.6981 92.6049C94.973 90.9779 94.9501 89.2756 94.6065 87.5657C94.1332 85.2306 91.8275 83.7241 89.4607 84.1912C87.0939 84.6582 85.5669 86.933 86.0403 89.268C86.0937 89.5166 86.1242 89.7652 86.1395 90.0138" stroke="#5784FF" stroke-width="0.916158" stroke-linecap="round" stroke-linejoin="round"/>
<path d="M93.4542 96.46C93.7291 95.8951 93.9734 95.3151 94.1719 94.72" stroke="#5784FF" stroke-width="0.916158" stroke-linecap="round" stroke-linejoin="round"/>
<path d="M83.7815 88.6802C83.7967 89.0192 83.8349 89.3581 83.9036 89.7046C84.1479 90.9023 83.6898 92.0773 82.8042 92.8155" stroke="#5784FF" stroke-width="0.916158" stroke-linecap="round" stroke-linejoin="round"/>
<path d="M96.8894 87.9788C96.8512 87.7001 96.7977 87.4214 96.7443 87.1427C96.0266 83.6476 92.568 81.3804 89.0255 82.0884C86.6892 82.5554 84.8951 84.1975 84.1469 86.2614" stroke="#5784FF" stroke-width="0.916158" stroke-linecap="round" stroke-linejoin="round"/>
<path d="M96.5146 94.4878C96.8658 93.1922 97.0567 91.8364 97.0644 90.458" stroke="#5784FF" stroke-width="0.916158" stroke-linecap="round" stroke-linejoin="round"/>
</g>
<rect x="110" y="74" width="32" height="32" rx="8.53333" fill="#EBF0FF"/>
<path d="M120.911 84.9091H131.092V95.0909" stroke="#5784FF" stroke-width="1.24444" stroke-miterlimit="10"/>
<path d="M120.909 97.9995C122.516 97.9995 123.818 96.6971 123.818 95.0904C123.818 93.4838 122.516 92.1813 120.909 92.1813C119.302 92.1813 118 93.4838 118 95.0904C118 96.6971 119.302 97.9995 120.909 97.9995Z" fill="#5784FF"/>
<path opacity="0.3" d="M120.909 97.9995C122.516 97.9995 123.818 96.6971 123.818 95.0904C123.818 93.4838 122.516 92.1813 120.909 92.1813C119.302 92.1813 118 93.4838 118 95.0904C118 96.6971 119.302 97.9995 120.909 97.9995Z" fill="white"/>
<path d="M131.091 87.8182C132.698 87.8182 134 86.5157 134 84.9091C134 83.3025 132.698 82 131.091 82C129.484 82 128.182 83.3025 128.182 84.9091C128.182 86.5157 129.484 87.8182 131.091 87.8182Z" fill="#5784FF"/>
<path d="M131.091 98C132.698 98 134 96.6976 134 95.0909C134 93.4843 132.698 92.1818 131.091 92.1818C129.484 92.1818 128.182 93.4843 128.182 95.0909C128.182 96.6976 129.484 98 131.091 98Z" fill="#5784FF"/>
<path d="M120.91 87.8182C122.517 87.8182 123.819 86.5157 123.819 84.9091C123.819 83.3025 122.517 82 120.91 82C119.303 82 118.001 83.3025 118.001 84.9091C118.001 86.5157 119.303 87.8182 120.91 87.8182Z" fill="#5784FF"/>
<path d="M120.909 86.1461C121.592 86.1461 122.146 85.5925 122.146 84.9097C122.146 84.2269 121.592 83.6733 120.909 83.6733C120.227 83.6733 119.673 84.2269 119.673 84.9097C119.673 85.5925 120.227 86.1461 120.909 86.1461Z" fill="white"/>
<path d="M131.092 86.1461C131.775 86.1461 132.329 85.5925 132.329 84.9097C132.329 84.2269 131.775 83.6733 131.092 83.6733C130.409 83.6733 129.856 84.2269 129.856 84.9097C129.856 85.5925 130.409 86.1461 131.092 86.1461Z" fill="white"/>
<path d="M131.092 96.3279C131.775 96.3279 132.329 95.7743 132.329 95.0915C132.329 94.4087 131.775 93.8551 131.092 93.8551C130.409 93.8551 129.856 94.4087 129.856 95.0915C129.856 95.7743 130.409 96.3279 131.092 96.3279Z" fill="white"/>
<rect x="146" y="74" width="32" height="32" rx="8.53333" fill="#EBF0FF"/>
<path d="M159.73 84.7248V83.5008C159.73 82.251 160.747 81.2339 161.997 81.2339C163.247 81.2339 164.264 82.251 164.264 83.5008V84.7248" stroke="#5784FF" stroke-width="1.37912" stroke-linecap="round" stroke-linejoin="round"/>
<path d="M164.879 84.1645H159.122C158.331 84.1645 157.691 84.8051 157.691 85.5953V89.2845C157.691 90.0747 158.331 90.7153 159.122 90.7153H164.879C165.67 90.7153 166.31 90.0747 166.31 89.2845V85.5953C166.31 84.8051 165.67 84.1645 164.879 84.1645Z" fill="#5784FF"/>
<path opacity="0.3" d="M164.879 84.1645H159.122C158.331 84.1645 157.691 84.8051 157.691 85.5953V89.2845C157.691 90.0747 158.331 90.7153 159.122 90.7153H164.879C165.67 90.7153 166.31 90.0747 166.31 89.2845V85.5953C166.31 84.8051 165.67 84.1645 164.879 84.1645Z" fill="white"/>
<path d="M168.033 92.4393H155.966C154.061 92.4393 152.518 93.983 152.518 95.8871C152.518 97.7913 154.061 99.335 155.966 99.335H168.033C169.937 99.335 171.481 97.7913 171.481 95.8871C171.481 93.983 169.937 92.4393 168.033 92.4393Z" fill="#5784FF"/>
<path d="M156.387 96.9214C156.959 96.9214 157.422 96.4583 157.422 95.8871C157.422 95.3158 156.959 94.8527 156.387 94.8527C155.816 94.8527 155.353 95.3158 155.353 95.8871C155.353 96.4583 155.816 96.9214 156.387 96.9214Z" fill="white"/>
<path d="M160.128 96.9214C160.699 96.9214 161.163 96.4583 161.163 95.8871C161.163 95.3158 160.699 94.8527 160.128 94.8527C159.557 94.8527 159.094 95.3158 159.094 95.8871C159.094 96.4583 159.557 96.9214 160.128 96.9214Z" fill="white"/>
<path d="M163.869 96.9214C164.44 96.9214 164.903 96.4583 164.903 95.8871C164.903 95.3158 164.44 94.8527 163.869 94.8527C163.297 94.8527 162.834 95.3158 162.834 95.8871C162.834 96.4583 163.297 96.9214 163.869 96.9214Z" fill="white"/>
<path d="M167.609 96.9214C168.181 96.9214 168.644 96.4583 168.644 95.8871C168.644 95.3158 168.181 94.8527 167.609 94.8527C167.038 94.8527 166.575 95.3158 166.575 95.8871C166.575 96.4583 167.038 96.9214 167.609 96.9214Z" fill="white"/>
<rect x="182" y="74" width="32" height="32" rx="8.53333" fill="#EBF0FF"/>
<g clip-path="url(#clip4_11124_106222)">
<path d="M197.641 89.0113C199.851 89.0113 201.641 87.2381 201.641 85.0519C201.641 82.8657 199.851 81.0925 197.641 81.0925C195.43 81.0925 193.641 82.8657 193.641 85.0519C193.641 87.2381 195.43 89.0113 197.641 89.0113ZM199.665 89.9992H195.617C192.872 89.9992 190.645 92.2258 190.645 94.9788V97.918C190.645 98.4605 191.09 98.9059 191.641 98.9059H203.649C204.2 98.9059 204.645 98.4605 204.645 97.9099V94.9707C204.645 92.2258 202.418 89.9992 199.673 89.9992H199.665Z" fill="#5784FF"/>
<path d="M195.212 94.1683L196.912 95.9901L200.07 92.9133" stroke="white" stroke-width="1.2" stroke-linecap="round" stroke-linejoin="round"/>
</g>
<rect x="218" y="74" width="32" height="32" rx="8.53333" fill="#EBF0FF"/>
<g clip-path="url(#clip5_11124_106222)">
<path d="M239.588 81.2888H227.812C226.419 81.2888 225.289 82.4185 225.289 83.8121V95.5876C225.289 96.9812 226.419 98.111 227.812 98.111H239.588C240.982 98.111 242.111 96.9812 242.111 95.5876V83.8121C242.111 82.4185 240.982 81.2888 239.588 81.2888Z" fill="#5784FF"/>
<path opacity="0.7" d="M239.588 81.2888H227.812C226.419 81.2888 225.289 82.4185 225.289 83.8121V95.5876C225.289 96.9812 226.419 98.111 227.812 98.111H239.588C240.982 98.111 242.111 96.9812 242.111 95.5876V83.8121C242.111 82.4185 240.982 81.2888 239.588 81.2888Z" fill="white"/>
<path d="M225.289 85.4943V83.8121C225.289 82.4159 226.416 81.2888 227.812 81.2888H229.495" stroke="#5784FF" stroke-width="1.17756" stroke-linecap="round" stroke-linejoin="round"/>
<path d="M242.11 85.4943V83.8121C242.11 82.4159 240.983 81.2888 239.587 81.2888H237.904" stroke="#5784FF" stroke-width="1.17756" stroke-linecap="round" stroke-linejoin="round"/>
<path d="M242.11 93.9054V95.5876C242.11 96.9838 240.983 98.1109 239.587 98.1109H237.904" stroke="#5784FF" stroke-width="1.17756" stroke-linecap="round" stroke-linejoin="round"/>
<path d="M225.289 93.9054V95.5876C225.289 96.9838 226.416 98.1109 227.812 98.1109H229.495" stroke="#5784FF" stroke-width="1.17756" stroke-linecap="round" stroke-linejoin="round"/>
<path d="M232.278 86.1588C232.278 85.6943 231.901 85.3177 231.437 85.3177C230.972 85.3177 230.596 85.6943 230.596 86.1588V87C230.596 87.4645 230.972 87.8411 231.437 87.8411C231.901 87.8411 232.278 87.4645 232.278 87V86.1588Z" fill="#5784FF"/>
<path d="M236.803 86.1588C236.803 85.6943 236.427 85.3177 235.962 85.3177C235.498 85.3177 235.121 85.6943 235.121 86.1588V87C235.121 87.4645 235.498 87.8411 235.962 87.8411C236.427 87.8411 236.803 87.4645 236.803 87V86.1588Z" fill="#5784FF"/>
<path d="M237.484 90.2971C237.484 92.3915 235.794 94.0821 233.699 94.0821C231.605 94.0821 229.914 92.3915 229.914 90.2971" stroke="#5784FF" stroke-width="1.17756" stroke-linecap="round" stroke-linejoin="round"/>
<path d="M233.699 88.6065V90.7934" stroke="#5784FF" stroke-width="1.17756" stroke-linecap="round" stroke-linejoin="round"/>
</g>
<rect x="254" y="74" width="32" height="32" rx="8.53333" fill="#EBF0FF"/>
<g clip-path="url(#clip6_11124_106222)">
<path d="M274.554 80.7901H265.807C264.083 80.7901 262.68 82.1838 262.68 83.8983V95.1025C262.68 96.817 264.083 98.2107 265.807 98.2107H273.123L277.689 93.6447V83.8983C277.689 82.1838 276.286 80.7901 274.563 80.7901H274.554Z" fill="#5784FF"/>
<path d="M268.447 85.8055L269.657 87.1166L271.913 84.8978" stroke="white" stroke-width="0.825184" stroke-linecap="round" stroke-linejoin="round"/>
<path d="M266.513 89.9681H273.848" stroke="white" stroke-width="0.825184" stroke-linecap="round" stroke-linejoin="round"/>
<path d="M266.513 92.2786H270.513" stroke="white" stroke-width="0.825184" stroke-linecap="round" stroke-linejoin="round"/>
<path d="M277.68 93.6539H274.013C273.508 93.6539 273.096 94.0665 273.096 94.5708V98.2199" fill="#5784FF"/>
<path opacity="0.5" d="M277.68 93.6539H274.013C273.508 93.6539 273.096 94.0665 273.096 94.5708V98.2199L277.68 93.6539Z" fill="white"/>
</g>
<circle cx="54" cy="18" r="14" fill="#0046FF"/>
<path d="M48.3945 18.7224L51.7773 22.3478L59.8913 13.6521" stroke="white" stroke-width="1.63333" stroke-linecap="round" stroke-linejoin="round"/>
<circle cx="54" cy="18" r="17" stroke="#0046FF" stroke-width="2"/>
<path d="M74 114H106V133C106 136.314 103.314 139 100 139H80C76.6863 139 74 136.314 74 133V114Z" fill="url(#paint0_linear_11124_106222)"/>
<g style="mix-blend-mode:multiply" opacity="0.7">
<rect x="74" y="114" width="32" height="5" fill="#A054ED"/>
</g>
<path d="M85.5 125.875L87.75 131.5L90 127L92.25 131.5L94.5 125.875" stroke="white" stroke-width="1.6" stroke-linecap="round" stroke-linejoin="round"/>
<path d="M93.9375 128.125H95.625" stroke="white" stroke-width="1.6" stroke-linecap="round"/>
<path d="M84.375 128.125H86.0625" stroke="white" stroke-width="1.6" stroke-linecap="round"/>
<rect x="66" y="110" width="32" height="24" rx="6" transform="rotate(90 66 110)" fill="#52BDF3"/>
<path d="M50.9277 125.187L53.1777 127.437L58.4277 122.187" stroke="white" stroke-width="1.6" stroke-linecap="round" stroke-linejoin="round"/>
<rect opacity="0.6" x="51" y="113.5" width="6" height="1.5" rx="0.75" fill="white"/>
<g style="mix-blend-mode:multiply" opacity="0.5">
<path d="M42 136H66C66 139.314 63.3137 142 60 142H48C44.6863 142 42 139.314 42 136Z" fill="#52BDF3"/>
</g>
<rect x="2" y="114" width="32" height="24" rx="4.5" fill="url(#paint1_linear_11124_106222)"/>
<g style="mix-blend-mode:multiply" opacity="0.8">
<path d="M2 120.133H34V124.799H2V120.133Z" fill="#346AFF"/>
</g>
<rect x="23.8027" y="128.664" width="5.44792" height="4.08594" rx="1.125" fill="white"/>
<rect x="290" y="74" width="32" height="32" rx="8.53333" fill="#EBF0FF"/>
<g clip-path="url(#clip7_11124_106222)">
<path d="M310.67 80.5576H301.69C299.92 80.5576 298.48 81.9884 298.48 83.7487V95.2516C298.48 97.0119 299.92 98.4427 301.69 98.4427H309.202L313.889 93.7549V83.7487C313.889 81.9884 312.449 80.5576 310.679 80.5576H310.67Z" fill="#5784FF"/>
<path d="M313.88 93.7645H310.115C309.597 93.7645 309.173 94.1881 309.173 94.7058V98.4523" fill="#5784FF"/>
<path opacity="0.5" d="M313.88 93.7645H310.115C309.597 93.7645 309.173 94.1881 309.173 94.7058V98.4523L313.88 93.7645Z" fill="white"/>
<path d="M306.076 85.2926L302.622 86.5163C302.499 86.5634 302.415 86.6763 302.415 86.8081V89.0861C302.415 89.7262 302.575 90.3569 302.895 90.9217L302.961 91.0441C303.356 91.7595 303.911 92.3807 304.57 92.8608L305.436 93.4915C305.879 93.8115 306.481 93.8115 306.924 93.4915L307.79 92.8608C308.449 92.3807 309.004 91.7595 309.399 91.0441L309.465 90.9217C309.776 90.3569 309.945 89.7262 309.945 89.0861V86.8081C309.945 86.6763 309.861 86.5539 309.738 86.5163L306.283 85.2926C306.218 85.2643 306.142 85.2643 306.076 85.2926Z" fill="#5784FF"/>
<path opacity="0.5" d="M306.076 85.2926L302.622 86.5163C302.499 86.5634 302.415 86.6763 302.415 86.8081V89.0861C302.415 89.7262 302.575 90.3569 302.895 90.9217L302.961 91.0441C303.356 91.7595 303.911 92.3807 304.57 92.8608L305.436 93.4915C305.879 93.8115 306.481 93.8115 306.924 93.4915L307.79 92.8608C308.449 92.3807 309.004 91.7595 309.399 91.0441L309.465 90.9217C309.776 90.3569 309.945 89.7262 309.945 89.0861V86.8081C309.945 86.6763 309.861 86.5539 309.738 86.5163L306.283 85.2926C306.218 85.2643 306.142 85.2643 306.076 85.2926Z" fill="white"/>
<path d="M304.297 89.2838L305.615 90.7146L308.063 88.2954" stroke="white" stroke-width="0.847188" stroke-linecap="round" stroke-linejoin="round"/>
</g>
<path fill-rule="evenodd" clip-rule="evenodd" d="M90 13C86.6863 13 84 15.6863 84 19C84 22.3137 86.6863 25 90 25C93.3137 25 96 22.3137 96 19C96 15.6863 93.3137 13 90 13ZM87.2038 6C85.0044 6 83.0516 7.19119 82.0066 9H79C76.7909 9 75 10.7909 75 13V26C75 28.2091 76.7909 30 79 30H101C103.209 30 105 28.2091 105 26V13C105 10.7909 103.209 9 101 9H97.9934C96.9484 7.19119 94.9956 6 92.7962 6H87.2038Z" fill="#0046FF"/>
<path d="M94 19C94 21.2091 92.2091 23 90 23C87.7909 23 86 21.2091 86 19C86 16.7909 87.7909 15 90 15C92.2091 15 94 16.7909 94 19Z" fill="#0046FF"/>
<g clip-path="url(#clip8_11124_106222)">
<path d="M198 213.999C206.836 213.999 213.999 206.836 213.999 198C213.999 189.163 206.836 182 198 182C189.163 182 182 189.163 182 198C182 206.836 189.163 213.999 198 213.999Z" fill="#F5E8FF"/>
<path d="M199.036 188.971L191.098 190.36C190.043 190.544 189.342 191.523 189.533 192.545L191.655 203.926C191.846 204.948 192.856 205.627 193.911 205.442L201.849 204.053C202.904 203.868 203.605 202.89 203.415 201.868L201.292 190.487C201.101 189.465 200.091 188.786 199.036 188.971Z" fill="#EBD4FF"/>
<path d="M205.999 193.054V204.619C205.999 205.658 205.13 206.5 204.058 206.5H195.991C195.18 206.5 194.485 206.019 194.195 205.334C194.101 205.114 194.049 204.872 194.049 204.619V193.054C194.049 192.016 194.918 191.173 195.991 191.173H204.058C205.13 191.173 205.999 192.016 205.999 193.054Z" fill="white"/>
<path d="M203.898 194.085H196.155C195.899 194.085 195.691 194.286 195.691 194.534V194.535C195.691 194.783 195.899 194.984 196.155 194.984H203.898C204.154 194.984 204.362 194.783 204.362 194.535V194.534C204.362 194.286 204.154 194.085 203.898 194.085Z" fill="#F5E8FF"/>
<path d="M203.898 196.511H196.155C195.899 196.511 195.691 196.712 195.691 196.96V196.961C195.691 197.209 195.899 197.41 196.155 197.41H203.898C204.154 197.41 204.362 197.209 204.362 196.961V196.96C204.362 196.712 204.154 196.511 203.898 196.511Z" fill="#F5E8FF"/>
<path d="M203.898 198.938H196.155C195.899 198.938 195.691 199.139 195.691 199.387V199.388C195.691 199.636 195.899 199.837 196.155 199.837H203.898C204.154 199.837 204.362 199.636 204.362 199.388V199.387C204.362 199.139 204.154 198.938 203.898 198.938Z" fill="#F5E8FF"/>
<path d="M203.897 201.364H201.236C200.98 201.364 200.773 201.565 200.773 201.813V201.814C200.773 202.062 200.98 202.263 201.236 202.263H203.897C204.153 202.263 204.361 202.062 204.361 201.814V201.813C204.361 201.565 204.153 201.364 203.897 201.364Z" fill="#F5E8FF"/>
</g>
<g clip-path="url(#clip9_11124_106222)">
<path d="M162 213.999C170.836 213.999 177.999 206.836 177.999 198C177.999 189.163 170.836 182 162 182C153.163 182 146 189.163 146 198C146 206.836 153.163 213.999 162 213.999Z" fill="url(#paint2_linear_11124_106222)"/>
<path d="M163.036 188.971L155.098 190.36C154.043 190.544 153.342 191.523 153.533 192.545L155.655 203.926C155.846 204.948 156.856 205.627 157.911 205.442L165.849 204.053C166.904 203.868 167.605 202.89 167.415 201.868L165.292 190.487C165.101 189.465 164.091 188.786 163.036 188.971Z" fill="#EBD4FF"/>
<path d="M169.999 193.054V204.619C169.999 205.658 169.13 206.5 168.058 206.5H159.991C159.18 206.5 158.485 206.019 158.195 205.334C158.101 205.114 158.049 204.872 158.049 204.619V193.054C158.049 192.016 158.918 191.173 159.991 191.173H168.058C169.13 191.173 169.999 192.016 169.999 193.054Z" fill="white"/>
<path d="M167.898 194.085H160.155C159.899 194.085 159.691 194.286 159.691 194.534V194.535C159.691 194.783 159.899 194.984 160.155 194.984H167.898C168.154 194.984 168.362 194.783 168.362 194.535V194.534C168.362 194.286 168.154 194.085 167.898 194.085Z" fill="#B76AFF"/>
<path d="M167.898 196.511H160.155C159.899 196.511 159.691 196.712 159.691 196.96V196.961C159.691 197.209 159.899 197.41 160.155 197.41H167.898C168.154 197.41 168.362 197.209 168.362 196.961V196.96C168.362 196.712 168.154 196.511 167.898 196.511Z" fill="#B76AFF"/>
<path d="M167.898 198.938H160.155C159.899 198.938 159.691 199.139 159.691 199.387V199.388C159.691 199.636 159.899 199.837 160.155 199.837H167.898C168.154 199.837 168.362 199.636 168.362 199.388V199.387C168.362 199.139 168.154 198.938 167.898 198.938Z" fill="#B76AFF"/>
<path d="M167.897 201.364H165.236C164.98 201.364 164.773 201.565 164.773 201.813V201.814C164.773 202.062 164.98 202.263 165.236 202.263H167.897C168.153 202.263 168.361 202.062 168.361 201.814V201.813C168.361 201.565 168.153 201.364 167.897 201.364Z" fill="#B76AFF"/>
</g>
<g clip-path="url(#clip10_11124_106222)">
<path d="M126 213.999C134.836 213.999 141.999 206.836 141.999 198C141.999 189.163 134.836 182 126 182C117.163 182 110 189.163 110 198C110 206.836 117.163 213.999 126 213.999Z" fill="#FFDBDB"/>
<path d="M131.863 207.89L126.002 204.602L120.141 207.89V190.691H131.863V207.89Z" fill="white"/>
<path d="M132.927 189.122H119.073C118.163 189.122 117.425 189.86 117.425 190.77V191.619C117.425 192.529 118.163 193.267 119.073 193.267H132.927C133.837 193.267 134.575 192.529 134.575 191.619V190.77C134.575 189.86 133.837 189.122 132.927 189.122Z" fill="#FFC3C3"/>
<path d="M126.894 196.514L127.19 197.114C127.336 197.407 127.615 197.611 127.938 197.658L128.6 197.754C129.415 197.873 129.74 198.875 129.151 199.449L128.672 199.917C128.438 200.145 128.33 200.474 128.387 200.796L128.5 201.457C128.64 202.268 127.787 202.888 127.058 202.504L126.466 202.193C126.177 202.04 125.829 202.04 125.541 202.193L124.948 202.504C124.22 202.888 123.366 202.268 123.506 201.457L123.619 200.796C123.674 200.474 123.568 200.145 123.334 199.917L122.855 199.449C122.264 198.873 122.591 197.873 123.406 197.754L124.069 197.658C124.393 197.611 124.673 197.407 124.816 197.114L125.112 196.514C125.477 195.776 126.53 195.776 126.894 196.514Z" fill="#FFDBDB"/>
</g>
<g clip-path="url(#clip11_11124_106222)">
<path d="M89.9997 213.999C98.8361 213.999 105.999 206.836 105.999 198C105.999 189.163 98.8361 182 89.9997 182C81.1633 182 74 189.163 74 198C74 206.836 81.1633 213.999 89.9997 213.999Z" fill="url(#paint3_linear_11124_106222)"/>
<path d="M95.8632 207.89L90.0021 204.602L84.141 207.89V190.691H95.8632V207.89Z" fill="white"/>
<path d="M96.9271 189.122H83.0729C82.1627 189.122 81.4248 189.86 81.4248 190.77V191.619C81.4248 192.529 82.1627 193.267 83.0729 193.267H96.9271C97.8373 193.267 98.5752 192.529 98.5752 191.619V190.77C98.5752 189.86 97.8373 189.122 96.9271 189.122Z" fill="#FFC3C3"/>
<path d="M90.8939 196.514L91.1902 197.114C91.3356 197.407 91.6149 197.611 91.9376 197.658L92.6001 197.754C93.4154 197.873 93.74 198.875 93.1512 199.449L92.6718 199.917C92.4378 200.145 92.3302 200.474 92.3868 200.796L92.5001 201.457C92.6397 202.268 91.7866 202.888 91.0581 202.504L90.4655 202.193C90.1767 202.04 89.8295 202.04 89.5407 202.193L88.9481 202.504C88.2196 202.888 87.3665 202.268 87.5062 201.457L87.6194 200.796C87.6741 200.474 87.5684 200.145 87.3344 199.917L86.855 199.449C86.2643 198.873 86.5908 197.873 87.4061 197.754L88.0686 197.658C88.3932 197.611 88.6725 197.407 88.816 197.114L89.1123 196.514C89.4765 195.776 90.5297 195.776 90.8939 196.514Z" fill="#FF7977"/>
</g>
<g clip-path="url(#clip12_11124_106222)">
<path d="M53.9997 213.999C62.8361 213.999 69.9995 206.836 69.9995 198C69.9995 189.163 62.8361 182 53.9997 182C45.1633 182 38 189.163 38 198C38 206.836 45.1633 213.999 53.9997 213.999Z" fill="#E2E5FF"/>
<g clip-path="url(#clip13_11124_106222)">
<path d="M60.3884 202.632C60.2976 202.632 60.225 202.56 60.225 202.469C60.225 202.378 60.2976 202.306 60.3884 202.306H61.1533C61.5165 202.012 61.7412 201.588 61.7412 201.113C61.7412 200.762 61.6345 200.434 61.4552 200.164H60.6585C60.5677 200.164 60.4951 200.092 60.4951 200.001C60.4951 199.911 60.5677 199.838 60.6585 199.838H61.63C61.8593 199.553 61.9977 199.18 61.9977 198.774C61.9977 198.335 61.8388 197.937 61.5778 197.645H60.5496C60.4588 197.645 60.3861 197.572 60.3861 197.482C60.3861 197.391 60.4588 197.319 60.5496 197.319H61.605C61.773 197.056 61.8706 196.737 61.8706 196.395C61.8706 195.503 61.2101 194.777 60.3998 194.777H56.0757C56.4684 193.536 56.1756 192.008 56.1325 191.806C55.9123 190.084 54.7343 189.998 54.5005 189.998C54.4301 189.998 54.387 190.004 54.387 190.004C53.6062 190.249 53.8354 191.422 53.8763 192.092C53.6743 194.054 51.3363 195.311 51.0186 195.632C50.812 195.7 50.265 195.863 49.8451 195.863C49.7679 195.863 49.7043 195.856 49.6499 195.847C49.5273 195.822 49.3979 195.854 49.3003 195.933C49.2027 196.013 49.146 196.13 49.146 196.257L49.0211 203.999C49.0211 204.23 49.5137 204.144 49.7452 204.144L52.3895 204.722C52.7686 204.722 53.0796 204.758 53.0955 204.758L59.0379 204.767H59.0401C59.0742 204.767 59.1082 204.762 59.1423 204.753H59.7279C60.5382 204.753 61.1987 204.056 61.1987 203.2C61.1987 202.99 61.1216 202.802 61.0081 202.637H60.3816L60.3884 202.632Z" fill="white"/>
<path d="M49.4933 195.472H46V205H49.4933V195.472Z" fill="#C8CEFF"/>
</g>
</g>
<g clip-path="url(#clip14_11124_106222)">
<path d="M17.9997 213.999C26.8361 213.999 33.9995 206.836 33.9995 198C33.9995 189.163 26.8361 182 17.9997 182C9.16332 182 2 189.163 2 198C2 206.836 9.16332 213.999 17.9997 213.999Z" fill="url(#paint4_linear_11124_106222)"/>
<g clip-path="url(#clip15_11124_106222)">
<path d="M24.3884 202.632C24.2976 202.632 24.225 202.56 24.225 202.469C24.225 202.378 24.2976 202.306 24.3884 202.306H25.1533C25.5165 202.012 25.7412 201.588 25.7412 201.113C25.7412 200.762 25.6345 200.434 25.4552 200.164H24.6585C24.5677 200.164 24.4951 200.092 24.4951 200.001C24.4951 199.911 24.5677 199.838 24.6585 199.838H25.63C25.8593 199.553 25.9977 199.18 25.9977 198.774C25.9977 198.335 25.8388 197.937 25.5778 197.645H24.5496C24.4588 197.645 24.3861 197.572 24.3861 197.482C24.3861 197.391 24.4588 197.319 24.5496 197.319H25.605C25.773 197.056 25.8706 196.737 25.8706 196.395C25.8706 195.503 25.2101 194.777 24.3998 194.777H20.0757C20.4684 193.536 20.1756 192.008 20.1325 191.806C19.9123 190.084 18.7343 189.998 18.5005 189.998C18.4301 189.998 18.387 190.004 18.387 190.004C17.6062 190.249 17.8354 191.422 17.8763 192.092C17.6743 194.054 15.3363 195.311 15.0186 195.632C14.812 195.7 14.265 195.863 13.8451 195.863C13.7679 195.863 13.7043 195.856 13.6499 195.847C13.5273 195.822 13.3979 195.854 13.3003 195.933C13.2027 196.013 13.146 196.13 13.146 196.257L13.0211 203.999C13.0211 204.23 13.5137 204.144 13.7452 204.144L16.3895 204.722C16.7686 204.722 17.0796 204.758 17.0955 204.758L23.0379 204.767H23.0401C23.0742 204.767 23.1082 204.762 23.1423 204.753H23.7279C24.5382 204.753 25.1987 204.056 25.1987 203.2C25.1987 202.99 25.1216 202.802 25.0081 202.637H24.3816L24.3884 202.632Z" fill="white"/>
<path d="M13.4933 195.472H10V205H13.4933V195.472Z" fill="#C8CEFF"/>
</g>
</g>
<defs>
<linearGradient id="paint0_linear_11124_106222" x1="90" y1="114" x2="90" y2="139" gradientUnits="userSpaceOnUse">
<stop stop-color="#BA82F2"/>
<stop offset="1" stop-color="#9946EC"/>
</linearGradient>
<linearGradient id="paint1_linear_11124_106222" x1="24.8012" y1="134" x2="24.8012" y2="113.196" gradientUnits="userSpaceOnUse">
<stop stop-color="#3369FF"/>
<stop offset="1" stop-color="#668FFF"/>
</linearGradient>
<linearGradient id="paint2_linear_11124_106222" x1="162" y1="182" x2="162" y2="213.999" gradientUnits="userSpaceOnUse">
<stop stop-color="#BB65FE"/>
<stop offset="1" stop-color="#A57BFF"/>
</linearGradient>
<linearGradient id="paint3_linear_11124_106222" x1="89.9997" y1="182" x2="89.9997" y2="213.999" gradientUnits="userSpaceOnUse">
<stop stop-color="#FD6362"/>
<stop offset="1" stop-color="#FF8380"/>
</linearGradient>
<linearGradient id="paint4_linear_11124_106222" x1="17.9997" y1="182" x2="17.9997" y2="213.999" gradientUnits="userSpaceOnUse">
<stop stop-color="#6574FE"/>
<stop offset="1" stop-color="#7B90FF"/>
</linearGradient>
<clipPath id="clip0_11124_106222">
<rect width="21" height="15.5217" fill="white" transform="translate(43.5 46.2391)"/>
</clipPath>
<clipPath id="clip1_11124_106222">
<rect width="18" height="18" fill="white" transform="translate(9 81)"/>
</clipPath>
<clipPath id="clip2_11124_106222">
<rect width="17.0667" height="18.0215" fill="white" transform="translate(45.452 80.61)"/>
</clipPath>
<clipPath id="clip3_11124_106222">
<rect width="15.1704" height="15.9688" fill="white" transform="translate(82.3531 81.5082)"/>
</clipPath>
<clipPath id="clip4_11124_106222">
<rect width="14" height="17.8134" fill="white" transform="translate(190.645 81.0923)"/>
</clipPath>
<clipPath id="clip5_11124_106222">
<rect width="18" height="17.9997" fill="white" transform="translate(224.699 80.7002)"/>
</clipPath>
<clipPath id="clip6_11124_106222">
<rect width="15" height="17.4297" fill="white" transform="translate(262.68 80.7901)"/>
</clipPath>
<clipPath id="clip7_11124_106222">
<rect width="15.4" height="17.8945" fill="white" transform="translate(298.48 80.5576)"/>
</clipPath>
<clipPath id="clip8_11124_106222">
<rect width="32" height="32" fill="white" transform="translate(182 182)"/>
</clipPath>
<clipPath id="clip9_11124_106222">
<rect width="32" height="32" fill="white" transform="translate(146 182)"/>
</clipPath>
<clipPath id="clip10_11124_106222">
<rect width="32" height="32" fill="white" transform="translate(110 182)"/>
</clipPath>
<clipPath id="clip11_11124_106222">
<rect width="32" height="32" fill="white" transform="translate(74 182)"/>
</clipPath>
<clipPath id="clip12_11124_106222">
<rect width="32" height="32" fill="white" transform="translate(38 182)"/>
</clipPath>
<clipPath id="clip13_11124_106222">
<rect width="16" height="15" fill="white" transform="translate(46 190)"/>
</clipPath>
<clipPath id="clip14_11124_106222">
<rect width="32" height="32" fill="white" transform="translate(2 182)"/>
</clipPath>
<clipPath id="clip15_11124_106222">
<rect width="16" height="15" fill="white" transform="translate(10 190)"/>
</clipPath>
</defs>
</svg>
