<svg width="101" height="24" viewBox="0 0 101 24" fill="none" xmlns="http://www.w3.org/2000/svg">
<g clip-path="url(#clip0_715_683)">
<path d="M10.153 1.84705C4.54768 1.84705 0 6.39472 0 12C0 17.6053 4.54768 22.153 10.153 22.153C15.7582 22.153 20.3059 17.6053 20.3059 12C20.3059 6.39472 15.7616 1.84705 10.153 1.84705ZM10.3645 20.2936C9.14994 20.4642 7.17121 20.1572 5.83385 19.3077C4.66026 18.5674 3.96088 17.6394 3.50714 16.6978C3.04316 15.7357 2.82481 14.5689 3.3195 14.6269C3.55149 14.6542 3.74936 15.0909 4.19628 15.6607C4.49991 16.0496 4.78308 16.3771 4.9946 16.4249C5.09012 16.4453 5.16859 16.401 5.23682 16.2747C5.36305 16.0325 5.53363 15.5754 5.83727 15.2035C6.0829 14.9203 6.37971 14.7873 6.5537 15.4798C6.63558 15.8244 6.70382 16.1826 6.74134 16.4931C6.79593 16.9332 6.82322 17.1959 6.97674 17.2675C7.12344 17.3392 7.36908 17.2471 7.77165 17.0969C8.05822 16.9912 8.42668 16.8547 8.89407 16.7217C9.32393 16.5989 9.59686 16.6637 9.32052 17.3289C9.19088 17.6428 9.05783 17.9089 8.59385 18.5776C8.51197 18.697 8.52903 18.813 8.62796 18.9119C8.7849 19.0654 9.13629 19.2531 9.52522 19.4237C9.83567 19.5567 10.2041 19.6761 10.4498 19.7444C10.8319 19.8535 10.7568 20.239 10.3713 20.2936H10.3645ZM15.574 18.1102C15.1953 18.7243 14.4038 19.3895 13.4417 19.8331C13.295 19.8979 13.1415 19.8774 13.1006 19.758C13.0665 19.6557 13.1483 19.5362 13.2439 19.4237C14.4959 17.7997 13.5646 16.3089 11.5449 15.1557C10.0506 14.3028 9.10218 13.8116 8.00023 13.1634C4.77284 11.2631 4.14852 9.60505 4.02229 8.62592C3.70501 6.1525 5.75198 4.29658 7.85353 3.84966C7.91835 3.83601 8.08552 3.80872 8.1401 3.9486C8.19469 4.08847 8.06846 4.19082 7.99682 4.23517C7.05521 4.75374 6.13066 5.85228 6.23301 7.07363C6.2876 7.75596 6.581 8.7385 8.43009 10.0554C9.54569 10.8503 10.9103 11.5019 13.6635 13.1531C16.5736 14.8965 16.2427 17.0253 15.574 18.1068V18.1102ZM16.0277 8.82379C15.3625 9.63575 14.7006 9.33553 14.1889 8.18923C13.8716 7.4762 13.452 7.30221 13.1552 7.48985C12.8311 7.69455 12.9607 8.18241 13.3223 8.74532C13.5577 9.11378 13.452 9.54705 13.2063 9.80292C12.9471 10.0724 12.5274 10.1782 12.0669 10.0793C11.2481 9.89845 10.4429 8.80332 11.0297 6.40837C11.2686 5.44288 10.8046 5.03008 10.5078 4.65821C10.3611 4.47399 10.344 4.3614 10.3952 4.28635C10.4532 4.20447 10.5896 4.19765 10.8285 4.24882C11.1423 4.31364 11.6097 4.4774 11.9918 4.5354C12.2443 4.57633 12.5308 4.58657 12.8311 4.57292C13.6464 4.54222 14.2503 4.66845 14.8644 4.97208C15.9083 5.49065 16.0175 6.38108 15.4341 6.30943C15.2328 6.28555 14.9736 6.13203 14.7586 6.02968C14.6153 5.96145 14.4925 5.93757 14.4004 6.00239C14.3151 6.0638 14.2776 6.19344 14.339 6.32308C14.4686 6.59601 14.9087 6.73588 15.5024 6.90305C16.5429 7.18963 16.5634 8.15511 16.0209 8.82379H16.0277Z" fill="#0046FF"/>
<path d="M29.4321 6.76652C28.7646 6.76652 28.2788 6.65894 27.9747 6.44377C27.6706 6.22119 27.5186 5.8428 27.5186 5.3086V1.79179C27.5186 1.60631 27.4963 1.45792 27.4518 1.34663C27.4073 1.22792 27.3331 1.1055 27.2293 0.979365C27.1625 0.890331 27.144 0.816137 27.1737 0.756782C27.2033 0.690007 27.259 0.65662 27.3405 0.65662H29.243V2.59309H33.8488V0.65662H35.5732V6.76652H32.5138V8.54718H36.9082V9.80478H26.3059V8.54718H30.7115V6.76652H29.4321ZM33.8488 5.52006V3.82843H29.243V4.85231C29.243 5.04521 29.2837 5.20473 29.3653 5.33086C29.4469 5.45699 29.6175 5.52006 29.8771 5.52006H33.8488Z" fill="#0046FF"/>
<path d="M42.1037 10.7062C41.7699 10.7062 41.4806 10.684 41.2359 10.6395C40.9986 10.6024 40.802 10.5282 40.6463 10.4169C40.4905 10.313 40.3755 10.1683 40.3014 9.98284C40.2346 9.80478 40.2013 9.57477 40.2013 9.29284V7.7904C40.2013 7.67911 40.1827 7.57895 40.1456 7.48991C40.1085 7.40088 40.0492 7.30814 39.9676 7.21169C39.9009 7.13007 39.8823 7.05588 39.912 6.9891C39.9417 6.92233 39.9973 6.88894 40.0789 6.88894H47.9221C48.0111 6.88894 48.0742 6.90749 48.1112 6.94459C48.1557 6.97426 48.178 7.03733 48.178 7.13378V10.7062H42.1037ZM40.802 1.13517C40.802 0.942267 40.7872 0.790169 40.7575 0.678878C40.7353 0.560167 40.6722 0.437746 40.5684 0.311616C40.4942 0.230002 40.472 0.159518 40.5016 0.100162C40.5387 0.0333874 40.598 0 40.6796 0H42.582V1.24646H45.1075V2.47067H43.9616C44.1321 2.66358 44.2619 2.87503 44.3509 3.10503C44.4474 3.33503 44.4956 3.591 44.4956 3.87294C44.4956 4.22166 44.4288 4.54811 44.2953 4.85231C44.1618 5.14908 43.969 5.40505 43.7168 5.62022C43.4721 5.83538 43.1717 6.00603 42.8157 6.13216C42.4597 6.25087 42.0592 6.31022 41.6141 6.31022C41.1691 6.31022 40.7686 6.25087 40.4126 6.13216C40.0566 6.00603 39.7525 5.83538 39.5004 5.62022C39.2556 5.40505 39.0665 5.14908 38.933 4.85231C38.7995 4.54811 38.7327 4.22166 38.7327 3.87294C38.7327 3.591 38.7772 3.33503 38.8662 3.10503C38.9626 2.86761 39.0924 2.65616 39.2556 2.47067H38.0986V1.24646H40.802V1.13517ZM46.4202 6.24345V4.5073H44.9406V3.24971H46.4202V1.44679C46.4202 1.25388 46.4017 1.10179 46.3646 0.990494C46.3275 0.871783 46.2571 0.749362 46.1532 0.623232C46.079 0.541618 46.0568 0.471134 46.0865 0.411778C46.1236 0.345003 46.1829 0.311616 46.2645 0.311616H48.1669V6.24345H46.4202ZM46.4647 9.50429V8.07976H41.9145V9.04799C41.9145 9.24832 41.9516 9.37445 42.0258 9.42639C42.1074 9.47832 42.2409 9.50429 42.4263 9.50429H46.4647ZM41.6141 5.09715C41.807 5.09715 41.9776 5.06376 42.1259 4.99699C42.2742 4.93021 42.4003 4.83747 42.5042 4.71876C42.608 4.60005 42.6859 4.46279 42.7378 4.30698C42.7971 4.15117 42.8268 3.98794 42.8268 3.8173C42.8268 3.44633 42.7192 3.13842 42.5042 2.89358C42.2965 2.64132 41.9998 2.51519 41.6141 2.51519C41.2211 2.51519 40.9207 2.64132 40.713 2.89358C40.5053 3.13842 40.4015 3.44633 40.4015 3.8173C40.4015 3.98794 40.4275 4.15117 40.4794 4.30698C40.5313 4.46279 40.6092 4.60005 40.713 4.71876C40.8168 4.83747 40.9429 4.93021 41.0913 4.99699C41.247 5.06376 41.4213 5.09715 41.6141 5.09715Z" fill="#0046FF"/>
<path d="M60.4936 5.35312V6.5662H49.8913V5.35312H60.4936ZM51.2263 8.13541C51.2263 8.02411 51.2078 7.92395 51.1707 7.83492C51.1336 7.74588 51.0743 7.65314 50.9927 7.55669C50.9259 7.47508 50.9074 7.40088 50.937 7.33411C50.9667 7.26733 51.0223 7.23394 51.1039 7.23394H52.9952V9.07025C52.9952 9.28542 53.1102 9.393 53.3401 9.393H59.4256V10.6506H52.5613C52.1311 10.6506 51.8011 10.5319 51.5712 10.2945C51.3413 10.0645 51.2263 9.76026 51.2263 9.38187V8.13541ZM57.5565 2.51519C57.5565 2.17389 57.3748 1.90308 57.0114 1.70276C56.648 1.49501 56.0435 1.39114 55.198 1.39114C54.3525 1.39114 53.748 1.49501 53.3846 1.70276C53.0212 1.90308 52.8394 2.17389 52.8394 2.51519C52.8394 2.85648 53.0212 3.131 53.3846 3.33874C53.748 3.53907 54.3525 3.63923 55.198 3.63923C56.0435 3.63923 56.648 3.53907 57.0114 3.33874C57.3748 3.131 57.5565 2.85648 57.5565 2.51519ZM59.2698 2.51519C59.2698 2.84164 59.1882 3.14584 59.025 3.42778C58.8693 3.70971 58.6245 3.95456 58.2908 4.1623C57.9644 4.37004 57.5454 4.53327 57.0336 4.65198C56.5219 4.77069 55.91 4.83005 55.198 4.83005C54.486 4.83005 53.8741 4.77069 53.3623 4.65198C52.8506 4.53327 52.4278 4.37004 52.0941 4.1623C51.7677 3.95456 51.523 3.70971 51.3598 3.42778C51.204 3.14584 51.1262 2.84164 51.1262 2.51519C51.1262 2.18873 51.204 1.88453 51.3598 1.6026C51.523 1.32066 51.7677 1.07582 52.0941 0.868073C52.4278 0.660329 52.8506 0.497102 53.3623 0.378391C53.8741 0.25968 54.486 0.200325 55.198 0.200325C55.91 0.200325 56.5219 0.25968 57.0336 0.378391C57.5454 0.497102 57.9644 0.660329 58.2908 0.868073C58.6245 1.07582 58.8693 1.32066 59.025 1.6026C59.1882 1.88453 59.2698 2.18873 59.2698 2.51519Z" fill="#0046FF"/>
<path d="M71.4453 7.23394V1.44679C71.4453 1.25388 71.4231 1.09808 71.3786 0.979365C71.3415 0.860654 71.271 0.741943 71.1672 0.623232C71.1004 0.541618 71.0819 0.471134 71.1116 0.411778C71.1487 0.345003 71.208 0.311616 71.2896 0.311616H73.192V7.23394H71.4453ZM66.0607 1.61373C66.0607 1.42824 66.0459 1.27985 66.0162 1.16856C65.994 1.04985 65.931 0.931138 65.8271 0.812428C65.7604 0.730814 65.7418 0.656619 65.7715 0.589844C65.8012 0.52307 65.8568 0.489683 65.9384 0.489683H67.863V1.96986C67.863 2.33341 67.9446 2.66358 68.1078 2.96035C68.2709 3.24971 68.4786 3.50568 68.7308 3.72826C68.9904 3.95085 69.2796 4.14375 69.5986 4.30698C69.9249 4.47021 70.2512 4.60747 70.5776 4.71876L70.0992 5.62022C70.025 5.75377 69.8507 5.79086 69.5763 5.73151C69.3093 5.67215 68.9347 5.49409 68.4527 5.19731C68.1782 5.02666 67.9149 4.83747 67.6628 4.62972C67.418 4.41456 67.2103 4.18827 67.0398 3.95085C66.6318 4.52956 66.1275 5.01924 65.5267 5.41989C65.3562 5.53118 65.1781 5.63877 64.9927 5.74264C64.8147 5.83909 64.6441 5.9207 64.481 5.98748C64.3178 6.04683 64.1769 6.08393 64.0582 6.09877C63.947 6.10619 63.8728 6.07651 63.8357 6.00974L63.3239 5.0415C63.6948 4.90053 64.0434 4.7336 64.3697 4.54069C64.7035 4.34037 64.9964 4.11778 65.2486 3.87294C65.5008 3.6281 65.6973 3.35729 65.8382 3.06052C65.9866 2.76374 66.0607 2.43728 66.0607 2.08115V1.61373ZM73.3811 9.393V10.6506H67.0286C66.6949 10.6506 66.4056 10.6246 66.1609 10.5727C65.9235 10.5282 65.7307 10.4503 65.5824 10.339C65.434 10.2277 65.3228 10.0756 65.2486 9.88268C65.1819 9.69719 65.1485 9.46348 65.1485 9.18154V7.56782C65.1485 7.45653 65.1299 7.35636 65.0929 7.26733C65.0558 7.1783 64.9964 7.08555 64.9149 6.9891C64.8481 6.90749 64.8296 6.83329 64.8592 6.76652C64.8889 6.69975 64.9445 6.66636 65.0261 6.66636H66.9174V8.94783C66.9174 9.11848 66.9508 9.23719 67.0175 9.30396C67.0843 9.36332 67.2029 9.393 67.3735 9.393H73.3811Z" fill="#0046FF"/>
<path d="M77.7311 1.13517C77.7311 0.942267 77.7162 0.790169 77.6866 0.678878C77.6643 0.560167 77.6013 0.437746 77.4974 0.311616C77.4233 0.230002 77.401 0.159518 77.4307 0.100162C77.4678 0.0333874 77.5271 0 77.6087 0H79.5111V1.24646H82.0365V2.47067H80.8684C81.0389 2.66358 81.1724 2.88245 81.2689 3.12729C81.3727 3.36471 81.4246 3.62439 81.4246 3.90633C81.4246 4.25504 81.3616 4.5815 81.2355 4.88569C81.1094 5.18247 80.924 5.44215 80.6792 5.66473C80.4345 5.88732 80.1304 6.06167 79.767 6.1878C79.411 6.31393 79.003 6.377 78.5432 6.377C78.0833 6.377 77.6754 6.31393 77.3194 6.1878C76.9634 6.06167 76.663 5.88732 76.4183 5.66473C76.1735 5.44215 75.9844 5.18247 75.8509 4.88569C75.7248 4.5815 75.6618 4.25504 75.6618 3.90633C75.6618 3.61697 75.7063 3.35358 75.7953 3.11616C75.8917 2.87874 76.0252 2.66358 76.1958 2.47067H75.0276V1.24646H77.7311V1.13517ZM82.9376 7.38975V1.44679C82.9376 1.25388 82.9191 1.10179 82.882 0.990494C82.8449 0.871783 82.7745 0.749362 82.6706 0.623232C82.5965 0.541618 82.5742 0.471134 82.6039 0.411778C82.641 0.345003 82.7003 0.311616 82.7819 0.311616H84.6843V2.93809H85.9526V4.19569H84.6843V7.38975H82.9376ZM84.8178 9.393V10.6506H78.5766C78.2428 10.6506 77.9536 10.6246 77.7088 10.5727C77.4715 10.5282 77.2786 10.4503 77.1303 10.339C76.982 10.2277 76.8707 10.0756 76.7965 9.88268C76.7298 9.69719 76.6964 9.46348 76.6964 9.18154V8.01298C76.6964 7.90169 76.6779 7.80153 76.6408 7.7125C76.6037 7.62346 76.5444 7.53072 76.4628 7.43427C76.396 7.35265 76.3775 7.27846 76.4072 7.21169C76.4368 7.14491 76.4924 7.11152 76.574 7.11152H78.4653V8.94783C78.4653 9.11848 78.4987 9.23719 78.5654 9.30396C78.6322 9.36332 78.7509 9.393 78.9214 9.393H84.8178ZM78.5432 5.15279C78.9289 5.15279 79.2255 5.02666 79.4332 4.7744C79.6483 4.51472 79.7558 4.20682 79.7558 3.85068C79.7558 3.47229 79.6483 3.15697 79.4332 2.90471C79.2255 2.64503 78.9289 2.51519 78.5432 2.51519C78.1501 2.51519 77.8497 2.64503 77.6421 2.90471C77.4344 3.15697 77.3305 3.47229 77.3305 3.85068C77.3305 4.20682 77.4344 4.51472 77.6421 4.7744C77.8497 5.02666 78.1501 5.15279 78.5432 5.15279Z" fill="#0046FF"/>
<path d="M87.7214 9.54881V1.99212C87.7214 1.79921 87.6992 1.64711 87.6547 1.53582C87.6176 1.42453 87.5472 1.30953 87.4433 1.19082C87.3766 1.1092 87.358 1.03501 87.3877 0.968236C87.4174 0.901461 87.473 0.868073 87.5546 0.868073H92.9058V2.17018H89.5349V4.55182H92.5943V5.85393H89.5349V8.25783H93.1505V9.54881H87.7214Z" fill="#0046FF"/>
<path d="M96.5184 8.25783H100.201V9.54881H94.26V8.61396L97.9981 2.17018H94.4269V0.868073H100.123V1.82518C100.123 1.95873 100.101 2.08115 100.056 2.19244C100.012 2.30373 99.9598 2.41131 99.9005 2.51519L96.5184 8.25783Z" fill="#0046FF"/>
<path d="M34.4829 24V14.6738C34.4829 14.4809 34.4644 14.3288 34.4273 14.2175C34.3902 14.0988 34.3197 13.9763 34.2159 13.8502C34.1417 13.7686 34.1195 13.6944 34.1492 13.6276C34.1862 13.5609 34.2456 13.5275 34.3272 13.5275H36.2296V24H34.4829ZM26.6174 18.0459C26.6174 17.2891 26.6767 16.6399 26.7954 16.0983C26.9215 15.5567 27.1143 15.1115 27.3739 14.7628C27.6409 14.4067 27.9747 14.147 28.3752 13.9838C28.7757 13.8131 29.2541 13.7278 29.8103 13.7278C30.3518 13.7278 30.819 13.8131 31.2121 13.9838C31.6126 14.147 31.939 14.403 32.1911 14.7517C32.4507 15.1004 32.6398 15.5456 32.7585 16.0872C32.8846 16.6288 32.9476 17.278 32.9476 18.0348C32.9476 18.7916 32.8846 19.4445 32.7585 19.9935C32.6398 20.5425 32.4507 20.9914 32.1911 21.3401C31.939 21.6888 31.6126 21.9485 31.2121 22.1192C30.819 22.2824 30.3518 22.364 29.8103 22.364C29.2541 22.364 28.7757 22.2824 28.3752 22.1192C27.9747 21.9485 27.6409 21.6888 27.3739 21.3401C27.1143 20.984 26.9215 20.5351 26.7954 19.9935C26.6767 19.4519 26.6174 18.8027 26.6174 18.0459ZM31.2344 18.0459C31.2344 16.9701 31.1157 16.1948 30.8784 15.7199C30.6484 15.2377 30.2887 14.9965 29.7992 14.9965C29.2726 14.9965 28.8944 15.2377 28.6644 15.7199C28.4345 16.2022 28.3196 16.9775 28.3196 18.0459C28.3196 19.1143 28.4345 19.8896 28.6644 20.3719C28.8944 20.8542 29.2726 21.0953 29.7992 21.0953C30.044 21.0953 30.2553 21.0396 30.4333 20.9284C30.6188 20.8096 30.7671 20.6279 30.8784 20.383C30.997 20.1382 31.086 19.8229 31.1454 19.437C31.2047 19.0512 31.2344 18.5875 31.2344 18.0459Z" fill="#0046FF"/>
<path d="M37.8538 15.208V13.9504H44.2619V15.208H42.048V17.0554C42.048 17.6638 42.1667 18.2054 42.404 18.6803C42.6488 19.1551 42.9714 19.5929 43.3719 19.9935C43.587 20.1938 43.8206 20.3867 44.0728 20.5722C44.3324 20.7577 44.592 20.9246 44.8516 21.073L44.2286 22.0635C44.1841 22.1229 44.1062 22.1414 43.9949 22.1192C43.8911 22.0969 43.765 22.045 43.6167 21.9634C43.4758 21.8818 43.3163 21.7742 43.1383 21.6406C42.9677 21.5071 42.7897 21.3624 42.6043 21.2066C42.2483 20.895 41.959 20.5982 41.7365 20.3163C41.514 20.0269 41.3323 19.7264 41.1914 19.4148C41.1098 19.5929 41.0097 19.7746 40.891 19.9601C40.7723 20.1382 40.6425 20.3163 40.5016 20.4943C40.3681 20.665 40.2235 20.8319 40.0677 20.9951C39.9194 21.1509 39.7748 21.2956 39.6339 21.4292C39.1073 21.9189 38.7105 22.2305 38.4435 22.364C38.1839 22.4976 38.0096 22.5124 37.9206 22.4085L37.1641 21.4514C37.4459 21.2659 37.724 21.0767 37.9985 20.8838C38.2729 20.6835 38.5213 20.4684 38.7439 20.2383C39.2111 19.7783 39.5745 19.2961 39.8341 18.7916C40.1011 18.287 40.2346 17.712 40.2346 17.0665V15.208H37.8538ZM45.6081 24V14.6738C45.6081 14.4809 45.5895 14.3288 45.5525 14.2175C45.5154 14.0988 45.4449 13.9763 45.3411 13.8502C45.2669 13.7686 45.2447 13.6944 45.2743 13.6276C45.3114 13.5609 45.3707 13.5275 45.4523 13.5275H47.3547V24H45.6081Z" fill="#0046FF"/>
<path d="M57.5899 18.4243C57.5899 19.1069 57.4935 19.7301 57.3006 20.294C57.1078 20.8579 56.8223 21.3438 56.444 21.7519C56.0657 22.1526 55.5985 22.4642 55.0422 22.6868C54.4934 22.9093 53.8593 23.0206 53.1398 23.0206C52.4204 23.0206 51.7826 22.9093 51.2263 22.6868C50.6775 22.4642 50.2139 22.1526 49.8357 21.7519C49.4574 21.3438 49.1718 20.8579 48.979 20.294C48.7862 19.7301 48.6898 19.1069 48.6898 18.4243C48.6898 17.7417 48.7862 17.1185 48.979 16.5546C49.1718 15.9907 49.4574 15.5085 49.8357 15.1078C50.2139 14.7072 50.6775 14.3955 51.2263 14.173C51.7826 13.9504 52.4204 13.8391 53.1398 13.8391C53.8593 13.8391 54.4934 13.9504 55.0422 14.173C55.5985 14.3955 56.0657 14.7072 56.444 15.1078C56.8223 15.5085 57.1078 15.9907 57.3006 16.5546C57.4935 17.1185 57.5899 17.7417 57.5899 18.4243ZM50.492 18.4243C50.492 19.4853 50.7294 20.3014 51.204 20.8727C51.6787 21.4366 52.324 21.7185 53.1398 21.7185C53.9483 21.7185 54.5898 21.4366 55.0645 20.8727C55.5392 20.3014 55.7765 19.4853 55.7765 18.4243C55.7765 17.3633 55.5392 16.5509 55.0645 15.987C54.5898 15.4157 53.9483 15.1301 53.1398 15.1301C52.324 15.1301 51.6787 15.4157 51.204 15.987C50.7294 16.5509 50.492 17.3633 50.492 18.4243Z" fill="#0046FF"/>
<path d="M60.3725 16.5101V17.1222C60.6024 16.8996 60.8583 16.7067 61.1401 16.5435C61.4294 16.3802 61.7706 16.2986 62.1636 16.2986C62.4974 16.2986 62.8052 16.3469 63.087 16.4433C63.3689 16.5323 63.6136 16.6659 63.8213 16.844C64.0364 17.022 64.2033 17.2446 64.3219 17.5117C64.4406 17.7714 64.4999 18.0719 64.4999 18.4132V22.7647H62.7533V18.569C62.7533 18.2128 62.6717 17.9569 62.5085 17.8011C62.3528 17.6378 62.0969 17.5562 61.7409 17.5562C61.4961 17.5562 61.2662 17.6045 61.0511 17.7009C60.836 17.7974 60.6284 17.9346 60.4281 18.1127V22.7647H58.6815V17.6341C58.6815 17.4412 58.6592 17.2891 58.6147 17.1778C58.5776 17.0665 58.5072 16.9515 58.4033 16.8328C58.3292 16.7512 58.3069 16.677 58.3366 16.6102C58.3737 16.5435 58.433 16.5101 58.5146 16.5101H60.3725Z" fill="#0046FF"/>
<path d="M75.5287 24V14.6738C75.5287 14.4809 75.5102 14.3288 75.4731 14.2175C75.436 14.0988 75.3656 13.9763 75.2617 13.8502C75.1876 13.7686 75.1653 13.6944 75.195 13.6276C75.232 13.5609 75.2914 13.5275 75.373 13.5275H77.2754V24H75.5287ZM70.1553 15.0299C70.1553 14.837 70.1367 14.6849 70.0996 14.5736C70.07 14.4549 70.0032 14.3325 69.8994 14.2064C69.8252 14.1247 69.803 14.0505 69.8326 13.9838C69.8623 13.917 69.9179 13.8836 69.9995 13.8836H71.9575V17.0554C71.9575 17.6638 72.0725 18.2091 72.3024 18.6914C72.5323 19.1662 72.8513 19.6003 73.2592 19.9935C73.4743 20.2013 73.7116 20.3979 73.9712 20.5834C74.2308 20.7614 74.4904 20.9246 74.75 21.073L74.1158 22.0635C74.0342 22.1897 73.834 22.1674 73.5151 21.9968C73.2036 21.8187 72.8253 21.5182 72.3803 21.0953C72.143 20.8727 71.9093 20.6204 71.6794 20.3385C71.4569 20.0566 71.2678 19.7598 71.112 19.4482C70.8895 19.8414 70.6485 20.1975 70.3889 20.5166C70.1293 20.8282 69.84 21.1324 69.5211 21.4292C69.0168 21.8892 68.6422 22.1934 68.3975 22.3418C68.1527 22.4901 67.9896 22.5124 67.908 22.4085L67.1403 21.4514C67.4296 21.2659 67.6929 21.0767 67.9302 20.8838C68.175 20.6835 68.4123 20.4684 68.6422 20.2383C69.1095 19.7783 69.4766 19.2961 69.7436 18.7916C70.018 18.287 70.1553 17.712 70.1553 17.0665V15.0299Z" fill="#0046FF"/>
<path d="M89.0792 21.763V23.0206H78.4769V21.763H89.0792ZM82.8936 14.9965C82.8936 14.8036 82.875 14.6515 82.838 14.5402C82.8009 14.4215 82.7304 14.2991 82.6266 14.173C82.5524 14.0913 82.5302 14.0209 82.5598 13.9615C82.5969 13.8947 82.6562 13.8613 82.7378 13.8613H84.6736V15.642C84.6736 15.9759 84.7849 16.3061 85.0074 16.6325C85.2373 16.9515 85.534 17.252 85.8974 17.534C86.2682 17.8085 86.691 18.057 87.1656 18.2796C87.6403 18.5022 88.1298 18.6766 88.6342 18.8027L88.2003 19.86C88.178 19.9193 88.0816 19.9379 87.911 19.9156C87.7405 19.8933 87.5402 19.8451 87.3103 19.7709C87.0804 19.6967 86.843 19.6114 86.5983 19.515C86.3609 19.4185 86.1607 19.3258 85.9975 19.2367C85.4932 18.9696 85.063 18.6877 84.707 18.3909C84.351 18.0941 84.0432 17.7751 83.7836 17.4338C83.524 17.7751 83.2162 18.1016 82.8602 18.4132C82.5042 18.7248 82.074 19.0141 81.5697 19.2812C81.4065 19.3703 81.2026 19.4667 80.9578 19.5706C80.7205 19.6671 80.4868 19.7524 80.2569 19.8266C80.027 19.9008 79.8267 19.9527 79.6562 19.9824C79.4856 20.0046 79.3891 19.9861 79.3669 19.9267L78.933 18.8583C79.43 18.7322 79.9157 18.5578 80.3904 18.3353C80.8725 18.1053 81.2953 17.8456 81.6587 17.5562C82.0295 17.2669 82.3262 16.959 82.5487 16.6325C82.7786 16.3061 82.8936 15.9759 82.8936 15.642V14.9965Z" fill="#0046FF"/>
<path d="M93.4291 23.9221C93.0954 23.9221 92.8098 23.9035 92.5725 23.8665C92.3351 23.8294 92.1423 23.7589 91.994 23.655C91.8531 23.5585 91.7492 23.4213 91.6825 23.2432C91.6157 23.0726 91.5823 22.8463 91.5823 22.5643V20.8393C91.5823 20.728 91.5638 20.6279 91.5267 20.5388C91.4896 20.4498 91.4303 20.3571 91.3487 20.2606C91.282 20.179 91.2634 20.1048 91.2931 20.038C91.3228 19.9712 91.3784 19.9379 91.46 19.9379H99.4145C99.5035 19.9379 99.5665 19.9564 99.6036 19.9935C99.6481 20.0232 99.6703 20.0863 99.6703 20.1827V23.9221H93.4291ZM91.6268 17.5228C91.6268 17.6564 91.6676 17.764 91.7492 17.8456C91.8308 17.9198 91.9346 17.9569 92.0607 17.9569H94.8754V18.8361C94.7122 18.9548 94.4934 19.0327 94.219 19.0698C93.9446 19.1069 93.6182 19.1254 93.24 19.1254H91.3265C91.1262 19.1254 90.9445 19.092 90.7813 19.0253C90.6182 18.9585 90.4772 18.8695 90.3586 18.7582C90.2473 18.6395 90.1583 18.5059 90.0916 18.3575C90.0248 18.2017 89.9914 18.0348 89.9914 17.8567V14.8964C89.9914 14.7035 89.9729 14.5476 89.9358 14.4289C89.8987 14.3102 89.8246 14.1915 89.7133 14.0728C89.6466 13.9912 89.628 13.917 89.6577 13.8502C89.6948 13.7834 89.7541 13.7501 89.8357 13.7501H94.1968V14.9186H91.6268V15.8535H93.7406V16.9775H91.6268V17.5228ZM94.4415 15.7199H95.6764V14.6293C95.6764 14.4289 95.6542 14.2843 95.6097 14.1952C95.5726 14.0988 95.5207 14.0023 95.4539 13.9059C95.3872 13.8094 95.3686 13.7352 95.3983 13.6833C95.4279 13.6239 95.4799 13.5942 95.554 13.5942H97.2562V19.259H95.6764V16.9775H94.4415V15.7199ZM99.6703 13.5275V19.259H98.0794V13.5275H99.6703ZM97.9571 22.7201V21.1287H93.2956V22.2639C93.2956 22.4642 93.3327 22.5903 93.4069 22.6422C93.4885 22.6942 93.622 22.7201 93.8074 22.7201H97.9571Z" fill="#0046FF"/>
</g>
<defs>
<clipPath id="clip0_715_683">
<rect width="100.201" height="24" fill="white"/>
</clipPath>
</defs>
</svg>
