<svg width="180" height="22" viewBox="0 0 180 22" fill="none" xmlns="http://www.w3.org/2000/svg">
<path d="M10.5243 0H3.08073C1.37934 0 0 1.38386 0 3.09082V18.9092C0 20.6161 1.37934 22 3.08073 22H10.5258C11.0484 22 11.5634 21.9604 12.0662 21.8903V18.8726C9.45791 19.8267 6.89367 19.4365 5.83486 17.7387C4.52236 15.6355 6.01563 12.3237 9.1708 10.3424C12.326 8.36107 15.8882 8.49671 17.26 10.5618C17.8205 11.4077 17.737 12.6529 17.737 12.6529V19.2826C20.0369 17.2662 21.4907 14.305 21.4907 10.9992C21.4876 4.92428 16.5794 0 10.5243 0Z" fill="#003595"/>
<path d="M14.6699 18.5296C14.2172 18.5296 13.8466 18.3817 13.5671 18.0922C12.8895 17.3896 12.9366 16.0148 12.9716 15.0105C12.9776 14.8154 12.9837 14.6356 12.9837 14.4801C12.9837 14.3109 13.1204 14.1753 13.2875 14.1753C13.4546 14.1753 13.5914 14.3125 13.5914 14.4801C13.5914 14.6478 13.5853 14.8306 13.5777 15.0318C13.5473 15.9265 13.5048 17.1518 14.003 17.6685C14.1656 17.8376 14.3843 17.9199 14.6684 17.9199C14.9525 17.9199 15.1758 17.8361 15.3398 17.6639C15.8487 17.132 15.7956 15.8304 15.7606 14.9709C15.753 14.7941 15.747 14.6295 15.7454 14.4847C15.7424 14.3155 15.8776 14.1768 16.0447 14.1753C16.0447 14.1753 16.0477 14.1753 16.0493 14.1753C16.2148 14.1753 16.3516 14.3094 16.3531 14.4755C16.3546 14.6158 16.3622 14.7743 16.3683 14.9449C16.4093 15.9676 16.467 17.3667 15.7773 18.0861C15.4963 18.3802 15.1226 18.5296 14.6669 18.5296H14.6699Z" fill="#003595"/>
<path d="M6.72806 17.1777C7.03932 17.1777 7.29165 16.9246 7.29165 16.6123C7.29165 16.3 7.03932 16.0469 6.72806 16.0469C6.4168 16.0469 6.16447 16.3 6.16447 16.6123C6.16447 16.9246 6.4168 17.1777 6.72806 17.1777Z" fill="#003595"/>
<path d="M35.2637 1.78879C36.4989 1.85828 37.6763 2.15937 38.7613 2.68052C39.8579 3.21325 40.8045 3.89654 41.6125 4.75353C42.4205 5.61053 43.0554 6.59491 43.5171 7.71827C43.9789 8.84163 44.2213 10.0461 44.2213 11.32C44.2213 12.5939 43.9904 13.7636 43.5287 14.8638C43.067 15.964 42.4321 16.9252 41.6356 17.759C40.8276 18.5929 39.881 19.2646 38.796 19.7625C37.7109 20.2605 36.5335 20.5501 35.2522 20.6195H30.9466V1.76562H35.2522V1.78879H35.2637ZM35.2637 16.2767C35.9217 16.2072 36.545 16.0335 37.1107 15.7555C37.6763 15.4776 38.1726 15.1185 38.5882 14.6785C39.0037 14.2384 39.327 13.7404 39.5694 13.1614C39.8118 12.5823 39.9272 11.9685 39.9272 11.32C39.9272 10.6714 39.8118 10.0229 39.5694 9.42069C39.327 8.81847 39.0037 8.27416 38.5766 7.81092C38.1495 7.34768 37.6647 6.95392 37.0991 6.6644C36.545 6.36329 35.9333 6.17799 35.2637 6.12009V16.2882V16.2767Z" fill="#003595"/>
<path d="M50.8817 15.767C50.6624 15.8017 50.4431 15.8249 50.2238 15.848C50.0045 15.8596 49.7736 15.8828 49.5312 15.8944V20.6194H45.2256V1.93921H49.5312C50.6047 1.95079 51.5974 2.14768 52.5324 2.52985C53.4674 2.90045 54.287 3.41001 54.9911 4.03539C55.6953 4.66077 56.2493 5.40194 56.6418 6.23578C57.0458 7.06961 57.2421 7.96135 57.2421 8.91099C57.2421 9.91854 57.0343 10.845 56.6072 11.702C56.1801 12.559 55.5914 13.3118 54.8295 13.9372L58.9505 20.6194H53.883L50.8817 15.767ZM49.5312 11.5515C49.9929 11.5399 50.4316 11.4588 50.8471 11.3083C51.2627 11.1693 51.6321 10.9724 51.9437 10.7292C52.2554 10.486 52.4978 10.2197 52.6825 9.89539C52.8556 9.5827 52.948 9.24684 52.948 8.88783C52.948 8.52881 52.8556 8.19296 52.6825 7.89186C52.5093 7.57917 52.2554 7.31281 51.9437 7.06961C51.6321 6.82641 51.2627 6.64112 50.8471 6.49056C50.4316 6.35159 49.9929 6.27051 49.5312 6.24735V11.5399V11.5515Z" fill="#003595"/>
<path d="M64.6759 18.4074C64.6759 19.0212 64.4565 19.5423 64.0294 19.9824C63.5908 20.4109 63.0714 20.6309 62.4596 20.6309C61.8478 20.6309 61.3283 20.4109 60.8897 19.9824C60.4511 19.5423 60.2433 19.0212 60.2433 18.4074C60.2433 17.7936 60.4626 17.2725 60.8897 16.8324C61.3283 16.3923 61.8478 16.1838 62.4596 16.1838C63.0714 16.1838 63.5908 16.4039 64.0294 16.8324C64.4681 17.2609 64.6759 17.7936 64.6759 18.4074Z" fill="#003595"/>
<path d="M74.4068 20.5963C73.2063 20.5963 72.0289 20.3647 70.8746 19.913C69.7318 19.4614 68.6929 18.7781 67.781 17.8516C66.8922 16.9483 66.2227 15.9291 65.761 14.7942C65.2992 13.6593 65.0568 12.4664 65.0568 11.2041C65.0568 9.94175 65.2877 8.72575 65.761 7.59081C66.2227 6.45587 66.9037 5.44832 67.781 4.56816C68.6929 3.65326 69.7318 2.9584 70.8862 2.49516C72.0405 2.03192 73.2179 1.80029 74.4184 1.80029C75.6189 1.80029 76.7847 2.03192 77.9275 2.49516C79.0703 2.9584 80.1092 3.64168 81.0211 4.56816L77.9852 7.61397C77.4889 7.11599 76.9348 6.74539 76.2999 6.50219C75.6766 6.25899 75.0302 6.1316 74.3837 6.1316C73.7373 6.1316 73.1025 6.25899 72.4907 6.50219C71.8673 6.74539 71.3133 7.11599 70.8169 7.61397C70.3436 8.11196 69.9742 8.65626 69.7203 9.27005C69.4663 9.88385 69.3394 10.5324 69.3394 11.2157C69.3394 11.899 69.4663 12.5359 69.7203 13.1497C69.9742 13.7519 70.3436 14.3078 70.8169 14.7942C71.3133 15.2922 71.8673 15.6628 72.4907 15.906C73.114 16.1492 73.7489 16.2766 74.3837 16.2766C75.0186 16.2766 75.665 16.1492 76.2999 15.906C76.9233 15.6628 77.4889 15.2922 77.9852 14.7942L81.0211 17.8632C80.1092 18.7781 79.0818 19.473 77.9391 19.9246C76.7963 20.3763 75.6189 20.6079 74.3953 20.6079L74.4068 20.5963Z" fill="#003595"/>
<path d="M82.0484 20.6194V1.83496H86.354V16.2997H93.1761V20.6194H82.0484Z" fill="#003595"/>
<path d="M101.926 1.84668C103.219 1.84668 104.431 2.08988 105.562 2.58786C106.693 3.08585 107.686 3.74596 108.54 4.59138C109.383 5.43679 110.052 6.42117 110.549 7.56769C111.045 8.71421 111.287 9.93023 111.287 11.2157C111.287 12.5012 111.045 13.7288 110.549 14.8753C110.052 16.0219 109.383 17.0062 108.54 17.8517C107.697 18.6971 106.705 19.3688 105.562 19.8552C104.431 20.3531 103.219 20.5963 101.926 20.5963C100.633 20.5963 99.421 20.3531 98.2897 19.8552C97.1585 19.3572 96.1658 18.6971 95.3231 17.8517C94.4805 17.0062 93.8225 16.0219 93.3261 14.8753C92.8298 13.7288 92.5874 12.5128 92.5874 11.2157C92.5874 9.91865 92.8298 8.70263 93.3261 7.56769C93.8225 6.43275 94.4805 5.43679 95.3231 4.59138C96.1658 3.74596 97.147 3.07427 98.2897 2.58786C99.421 2.08988 100.633 1.84668 101.926 1.84668ZM101.937 16.2766C102.63 16.2766 103.288 16.1492 103.9 15.8829C104.512 15.6165 105.043 15.2575 105.504 14.7943C105.966 14.331 106.324 13.7983 106.589 13.1845C106.855 12.5707 106.982 11.9106 106.982 11.2157C106.982 10.5209 106.855 9.86075 106.589 9.24696C106.324 8.63316 105.966 8.10043 105.504 7.63719C105.043 7.17395 104.512 6.81494 103.9 6.54857C103.288 6.28221 102.63 6.15481 101.937 6.15481C101.245 6.15481 100.587 6.28221 99.975 6.54857C99.3633 6.81494 98.8323 7.17395 98.3705 7.63719C97.9088 8.10043 97.551 8.63316 97.2855 9.24696C97.02 9.86075 96.893 10.5209 96.893 11.2157C96.893 11.9106 97.02 12.5707 97.2855 13.1845C97.551 13.7983 97.9088 14.331 98.3705 14.7943C98.8323 15.2575 99.3633 15.6165 99.975 15.8829C100.587 16.1492 101.245 16.2766 101.937 16.2766Z" fill="#003595"/>
<path d="M121.261 1.84668C122.554 1.84668 123.766 2.08988 124.897 2.58786C126.028 3.08585 127.021 3.74596 127.875 4.59138C128.718 5.43679 129.387 6.42117 129.884 7.56769C130.38 8.71421 130.622 9.93023 130.622 11.2157C130.622 12.5012 130.38 13.7288 129.884 14.8753C129.387 16.0219 128.718 17.0062 127.875 17.8517C127.032 18.6971 126.04 19.3688 124.897 19.8552C123.766 20.3531 122.554 20.5963 121.261 20.5963C119.968 20.5963 118.756 20.3531 117.625 19.8552C116.493 19.3572 115.501 18.6971 114.658 17.8517C113.815 17.0062 113.157 16.0219 112.661 14.8753C112.165 13.7288 111.922 12.5128 111.922 11.2157C111.922 9.91865 112.165 8.70263 112.661 7.56769C113.157 6.43275 113.815 5.43679 114.658 4.59138C115.501 3.74596 116.482 3.07427 117.625 2.58786C118.756 2.08988 119.968 1.84668 121.261 1.84668ZM121.272 16.2766C121.965 16.2766 122.623 16.1492 123.235 15.8829C123.846 15.6165 124.377 15.2575 124.839 14.7943C125.301 14.331 125.659 13.7983 125.924 13.1845C126.19 12.5707 126.317 11.9106 126.317 11.2157C126.317 10.5209 126.19 9.86075 125.924 9.24696C125.659 8.63316 125.301 8.10043 124.839 7.63719C124.377 7.17395 123.846 6.81494 123.235 6.54857C122.623 6.28221 121.965 6.15481 121.272 6.15481C120.58 6.15481 119.922 6.28221 119.31 6.54857C118.698 6.81494 118.167 7.17395 117.705 7.63719C117.244 8.10043 116.886 8.63316 116.62 9.24696C116.355 9.86075 116.228 10.5209 116.228 11.2157C116.228 11.9106 116.355 12.5707 116.62 13.1845C116.886 13.7983 117.244 14.331 117.705 14.7943C118.167 15.2575 118.698 15.6165 119.31 15.8829C119.922 16.1492 120.58 16.2766 121.272 16.2766Z" fill="#003595"/>
<path d="M146.991 1.86987V20.6196H142.327L136.209 9.68707V20.6196H131.904V1.91621H136.59L142.673 12.8255V1.86987H146.979H146.991Z" fill="#003595"/>
<path d="M153.836 6.18949V9.02684H160.081V13.3466H153.836V16.3113H161.523V20.631H149.53V1.9045L161.523 1.88135V6.20107H153.836V6.18949Z" fill="#003595"/>
<path d="M169.142 15.3154L162.747 1.71924H167.514L171.358 9.87227L174.648 1.71924H179.312L171.647 20.631H166.983L169.154 15.3154H169.142Z" fill="#003595"/>
</svg>
