<svg width="20" height="20" viewBox="0 0 20 20" fill="none" xmlns="http://www.w3.org/2000/svg">
<path d="M7.6 7.6V6.85C7.18579 6.85 6.85 7.18579 6.85 7.6H7.6ZM7.67969 7.6H8.42969C8.42969 7.18579 8.0939 6.85 7.67969 6.85V7.6ZM12.4 7.6V6.85C11.9858 6.85 11.65 7.18579 11.65 7.6H12.4ZM12.4708 7.6H13.2208C13.2208 7.18579 12.8851 6.85 12.4708 6.85V7.6ZM7.67969 7.66406V8.41406C8.0939 8.41406 8.42969 8.07828 8.42969 7.66406H7.67969ZM7.6 7.66406H6.85C6.85 8.07828 7.18579 8.41406 7.6 8.41406V7.66406ZM12.4708 7.66406V8.41406C12.8851 8.41406 13.2208 8.07828 13.2208 7.66406H12.4708ZM12.4 7.66406H11.65C11.65 8.07828 11.9858 8.41406 12.4 8.41406V7.66406ZM9.99994 12.0032V11.2532V12.0032ZM12.1356 13.9653C12.3536 14.3175 12.8159 14.4262 13.1681 14.2082C13.5203 13.9902 13.629 13.528 13.411 13.1758L12.1356 13.9653ZM6.58885 13.1758C6.37084 13.528 6.47962 13.9902 6.83182 14.2082C7.18401 14.4262 7.64626 14.3175 7.86427 13.9653L6.58885 13.1758ZM17.25 10C17.25 14.0041 14.0041 17.25 10 17.25V18.75C14.8325 18.75 18.75 14.8325 18.75 10H17.25ZM10 17.25C5.99593 17.25 2.75 14.0041 2.75 10H1.25C1.25 14.8325 5.16751 18.75 10 18.75V17.25ZM2.75 10C2.75 5.99593 5.99593 2.75 10 2.75V1.25C5.16751 1.25 1.25 5.16751 1.25 10H2.75ZM10 2.75C14.0041 2.75 17.25 5.99593 17.25 10H18.75C18.75 5.16751 14.8325 1.25 10 1.25V2.75ZM7.6 8.35H7.67969V6.85H7.6V8.35ZM12.4 8.35H12.4708V6.85H12.4V8.35ZM6.92969 7.6V7.66406H8.42969V7.6H6.92969ZM7.67969 6.91406H7.6V8.41406H7.67969V6.91406ZM8.35 7.66406V7.6H6.85V7.66406H8.35ZM11.7208 7.6V7.66406H13.2208V7.6H11.7208ZM12.4708 6.91406H12.4V8.41406H12.4708V6.91406ZM13.15 7.66406V7.6H11.65V7.66406H13.15ZM9.99994 12.7532C10.8889 12.7532 11.6797 13.2287 12.1356 13.9653L13.411 13.1758C12.7004 12.0277 11.4429 11.2532 9.99994 11.2532V12.7532ZM7.86427 13.9653C8.3202 13.2287 9.11101 12.7532 9.99994 12.7532V11.2532C8.55694 11.2532 7.29949 12.0277 6.58885 13.1758L7.86427 13.9653Z" fill="white"/>
</svg>
