<svg width="24" height="24" viewBox="0 0 24 24" fill="none" xmlns="http://www.w3.org/2000/svg">
<path d="M15.9243 9.13612C16.2172 8.84323 16.2172 8.36835 15.9243 8.07546C15.6315 7.78257 15.1566 7.78257 14.8637 8.07546L15.9243 9.13612ZM8.07546 14.8637C7.78257 15.1566 7.78257 15.6315 8.07546 15.9243C8.36835 16.2172 8.84323 16.2172 9.13612 15.9243L8.07546 14.8637ZM14.8637 15.9243C15.1566 16.2172 15.6315 16.2172 15.9243 15.9243C16.2172 15.6315 16.2172 15.1566 15.9243 14.8637L14.8637 15.9243ZM9.13612 8.07546C8.84323 7.78257 8.36835 7.78257 8.07546 8.07546C7.78257 8.36835 7.78257 8.84323 8.07546 9.13612L9.13612 8.07546ZM20.8499 11.9999C20.8499 16.8876 16.8876 20.8499 11.9999 20.8499V22.3499C17.716 22.3499 22.3499 17.716 22.3499 11.9999H20.8499ZM11.9999 20.8499C7.11218 20.8499 3.1499 16.8876 3.1499 11.9999H1.6499C1.6499 17.716 6.28375 22.3499 11.9999 22.3499V20.8499ZM3.1499 11.9999C3.1499 7.11218 7.11218 3.1499 11.9999 3.1499V1.6499C6.28375 1.6499 1.6499 6.28375 1.6499 11.9999H3.1499ZM11.9999 3.1499C16.8876 3.1499 20.8499 7.11218 20.8499 11.9999H22.3499C22.3499 6.28375 17.716 1.6499 11.9999 1.6499V3.1499ZM14.8637 8.07546L11.4696 11.4696L12.5302 12.5302L15.9243 9.13612L14.8637 8.07546ZM11.4696 11.4696L8.07546 14.8637L9.13612 15.9243L12.5302 12.5302L11.4696 11.4696ZM15.9243 14.8637L12.5302 11.4696L11.4696 12.5302L14.8637 15.9243L15.9243 14.8637ZM12.5302 11.4696L9.13612 8.07546L8.07546 9.13612L11.4696 12.5302L12.5302 11.4696Z" fill="black"/>
</svg>
